<svg width="17" height="17" xmlns="http://www.w3.org/2000/svg"><path d="M7.869 10.524H4.17c-.317 0-.528.212-.528.529v1.057c.846 0 1.585.74 1.585 1.585v1.057c0 .951-.74 1.585-1.585 1.585H2.585c-.845 0-1.585-.74-1.585-1.585v-1.057c0-.845.74-1.585 1.585-1.585v-1.057c0-.845.74-1.585 1.585-1.585h3.7V7.352l-1.056.001c-.846 0-1.586-.74-1.586-1.585v-3.17c0-.846.74-1.586 1.585-1.586h3.171c.845 0 1.585.74 1.585 1.585v3.17c0 .952-.74 1.586-1.585 1.586H8.926v2.113h3.699c.845 0 1.585.74 1.585 1.586v1.057c.846 0 1.585.74 1.585 1.585v1.057c0 .951-.74 1.585-1.585 1.585h-1.057c-.845 0-1.585-.74-1.585-1.585v-1.057c0-.845.74-1.585 1.585-1.585v-1.057c0-.317-.211-.528-.528-.528H8.926v1.585c.846 0 1.585.74 1.585 1.585v1.057c0 .951-.74 1.585-1.585 1.585H7.87c-.845 0-1.585-.74-1.585-1.585v-1.057c0-.845.74-1.585 1.585-1.585v-1.586zm-4.227 2.643H2.585c-.317 0-.528.211-.528.528v1.057c0 .317.211.528.528.528h1.057c.317 0 .528-.211.528-.528v-1.057c0-.317-.21-.528-.528-.528zm10.568 0h-1.057c-.317 0-.528.211-.528.528v1.057c0 .317.211.528.528.528h1.057c.317 0 .529-.211.529-.528v-1.057c0-.317-.212-.528-.529-.528zm-5.284 0H7.87c-.317 0-.528.211-.528.528v1.057c0 .317.211.528.528.528h1.057c.317 0 .529-.211.529-.528v-1.057c0-.317-.212-.528-.529-.528zM9.983 2.07h-3.17c-.318 0-.529.211-.529.528v3.17c0 .318.211.53.529.53h3.17c.317 0 .528-.212.528-.53v-3.17c0-.317-.211-.528-.528-.528z"/></svg>