<svg width="18" height="18" xmlns="http://www.w3.org/2000/svg"><path d="M15.43 1c.868 0 1.57.702 1.57 1.57v9.87a1.57 1.57 0 01-1.57 1.569h-.716v1.421a1.57 1.57 0 01-1.57 1.57H2.57C1.702 17 1 16.298 1 15.43V4.855c0-.866.704-1.57 1.57-1.57h1.42V2.57c0-.868.702-1.57 1.57-1.57zM3.991 4.429H2.57a.427.427 0 00-.427.426V15.43c0 .236.19.427.427.427h10.575a.427.427 0 00.426-.427v-1.42h-8.01a1.57 1.57 0 01-1.57-1.57V4.43zm11.44-2.286H5.56a.427.427 0 00-.427.427v9.87c0 .235.191.426.427.426h9.87a.427.427 0 00.426-.427V2.57a.427.427 0 00-.427-.426zm-4.936 1.934c.335 0 .659.046.964.137l-.322 1.097a2.265 2.265 0 00-.642-.091 2.27 2.27 0 00-1.616.67 2.27 2.27 0 00-.67 1.615 2.275 2.275 0 00.67 1.616 2.25 2.25 0 001.616.67 2.27 2.27 0 001.616-.67 2.27 2.27 0 00.67-1.616 2.29 2.29 0 00-.161-.843l1.062-.42a3.43 3.43 0 11-6.616 1.264 3.43 3.43 0 013.429-3.43zm1.893.746a.57.57 0 110 1.142.57.57 0 010-1.142z"/></svg>