<svg width="18" height="17" xmlns="http://www.w3.org/2000/svg"><path d="M4.568 6.95v1.212H3.566c-.748 0-1.354.606-1.354 1.354v3.687l3.227-3.248a.61.61 0 01.435-.18.61.61 0 01.434.18.627.627 0 01.004.88L2.39 14.783c.24.422.69.683 1.176.684h5.486l-2.811-2.832.025-.028a.625.625 0 01.108-.69.615.615 0 01.898-.003l1.845 1.857 5.554-5.589a1.36 1.36 0 00-.237-.021h-1.002v-.03h-.014v-.002h.014V6.95h1.002A2.569 2.569 0 0117 9.516v4.597a2.569 2.569 0 01-2.566 2.566H3.566A2.569 2.569 0 011 14.113V9.516A2.569 2.569 0 013.566 6.95h1.002zM15.66 8.944l-5.67 5.708.809.815h3.634a1.355 1.355 0 001.354-1.354V9.516a1.36 1.36 0 00-.127-.572zM8.998 1c1.09 0 2.136.436 2.904 1.21a4.153 4.153 0 01.157 5.677l-.321.332-2.74 2.76L5.93 7.892a4.165 4.165 0 01.164-5.682A4.088 4.088 0 018.998 1zm-.001 1.246a2.86 2.86 0 00-2.03.845 2.905 2.905 0 000 4.085l2.03 2.043 2.03-2.042a2.906 2.906 0 000-4.086 2.86 2.86 0 00-2.03-.845zm-.002 1.875a1.008 1.008 0 011.006 1.013 1.01 1.01 0 01-1.004 1.011A1.009 1.009 0 017.99 5.134 1.01 1.01 0 018.995 4.12z"/></svg>