<svg width="16" height="18" xmlns="http://www.w3.org/2000/svg"><g stroke-width=".2"><path d="M5.034 10.12c.352 0 .64-.288.64-.64V8.2a.642.642 0 00-.64-.64.642.642 0 00-.64.64v1.28c0 .352.288.64.64.64zm3.2 0c.352 0 .64-.288.64-.64V5.64a.642.642 0 00-.64-.64.642.642 0 00-.64.64v3.84c0 .352.288.64.64.64zm3.2 0c.352 0 .64-.288.64-.64V6.92a.642.642 0 00-.64-.64.642.642 0 00-.64.64v2.56c0 .352.288.64.64.64zm.32.96h-7.04a.642.642 0 00-.64.64c0 .352.288.64.64.64h7.04c.352 0 .64-.288.64-.64a.642.642 0 00-.64-.64z"/><path d="M13.546 2.6c-2.304 0-3.104-.544-3.744-.992C9.386 1.32 8.938 1 8.234 1c-.704 0-1.152.32-1.568.608-.64.448-1.44.992-3.744.992-1.056 0-1.92.864-1.92 1.92v5.44c0 4.928 6.24 7.04 7.232 7.04s7.232-2.112 7.232-7.04V4.52c0-1.056-.864-1.92-1.92-1.92zm.64 7.36c0 4.032-5.44 5.728-5.952 5.76-.544-.032-5.952-1.728-5.952-5.76V4.52c0-.352.288-.64.64-.64 2.688 0 3.776-.736 4.48-1.216.352-.256.544-.384.832-.384.288 0 .48.128.832.384.704.48 1.76 1.216 4.48 1.216.352 0 .64.288.64.64v5.44z"/></g></svg>