<svg width="16" height="16" xmlns="http://www.w3.org/2000/svg"><path d="M1.208 4.82v8.472a1.21 1.21 0 001.21 1.198H13.28a1.202 1.202 0 001.211-1.198V4.82a1.21 1.21 0 00-1.211-1.197H2.419A1.202 1.202 0 001.207 4.82zm2.427-2.405v-.61c0-.991.811-1.799 1.799-1.799h4.852c.996 0 1.8.802 1.8 1.8v.609h1.193a2.419 2.419 0 012.419 2.405v8.472a2.41 2.41 0 01-2.419 2.406H2.419A2.419 2.419 0 010 13.292V4.82a2.41 2.41 0 012.419-2.405h1.216zm1.207 0h6.038v-.61a.59.59 0 00-.594-.591H5.434a.598.598 0 00-.592.591v.61zM4.83 7.849c0-1 .814-1.811 1.811-1.811h2.415c1 0 1.812.804 1.812 1.81 0 1-.814 1.812-1.812 1.812H6.641c-1 0-1.81-.804-1.81-1.811zm1.208 0c0 .338.266.604.603.604h2.415a.606.606 0 00.604-.604.599.599 0 00-.604-.604H6.641a.606.606 0 00-.603.604zM0 7.245h6.038v1.208H0V7.245zm9.66 0h6.038v1.208H9.66V7.245z"/></svg>