<svg width="17" height="16" xmlns="http://www.w3.org/2000/svg"><path d="M5.67 1.014l.376.43a.49.49 0 01.06-.01h8.05a1 1 0 011 1v.968a1.73 1.73 0 011.24 1.62v8.465a1.69 1.69 0 01-1.702 1.687H2.689a1.69 1.69 0 01-1.687-1.687V2.711A1.687 1.687 0 012.69 1.014h2.98zm-.442.96h-2.54a.716.716 0 00-.712.737v10.776c0 .394.32.713.713.713h12.005a.709.709 0 00.712-.713V5.021a.738.738 0 00-.559-.692l-.017.002H7.527a.489.489 0 01-.109-.012.496.496 0 01-.297-.165l-1.893-2.18zm2.45 3.428c.14 0 .273.057.37.158.205.242.486.408.796.473.315-.056.602-.218.812-.458a.49.49 0 01.55-.114l.97.572a.49.49 0 01.152.612 1.31 1.31 0 00-.085.41 1.037 1.037 0 001.008 1.066h.033c.162 0 .295.133.336.37v.029c.047.266.074.535.081.805a5.41 5.41 0 01-.081.804c-.04.225-.174.37-.336.37h-.033a1.04 1.04 0 00-1.008 1.07c-.004.13.015.262.056.387a.498.498 0 01-.155.583l-.986.58a.458.458 0 01-.184.036.476.476 0 01-.37-.162 1.44 1.44 0 00-.815-.506 1.447 1.447 0 00-.812.495.48.48 0 01-.55.125l-.952-.56a.51.51 0 01-.159-.573c.052-.13.082-.266.089-.406a1.04 1.04 0 00-1.007-1.107h-.041c-.162 0-.288-.136-.332-.369a5.41 5.41 0 01-.074-.823c.007-.27.034-.539.081-.804.044-.225.177-.37.336-.37h.033a1.04 1.04 0 001.008-1.07 1.314 1.314 0 00-.089-.41.498.498 0 01.155-.582l1.022-.59a.432.432 0 01.181-.041zm.196 1h-.03l-.793.454c.063.163.098.337.103.513A1.299 1.299 0 015.97 8.693c-.033.2-.053.4-.06.602.007.203.027.405.06.605a1.292 1.292 0 011.184 1.321c-.004.176-.039.35-.103.513l.756.45h.026c.09-.098.187-.188.292-.269.19-.168.43-.268.683-.284.255.016.498.117.69.288.106.084.204.176.295.277h.022l.782-.462a1.528 1.528 0 01-.103-.513 1.292 1.292 0 011.185-1.32c.032-.201.052-.403.059-.606a3.96 3.96 0 00-.063-.602c-.682-.06-1.2-.64-1.18-1.324.004-.176.04-.35.102-.513l-.77-.454h-.03a2.24 2.24 0 01-.292.265c-.19.16-.425.253-.672.27a1.148 1.148 0 01-.671-.273 2.528 2.528 0 01-.288-.262zM8.822 7.9a1.391 1.391 0 110 2.783 1.391 1.391 0 010-2.783zm0 .886A.51.51 0 108.91 9.8a.51.51 0 00-.087-1.015zM7.72 3.356h6.461v-.951H6.887l.833.952z"/></svg>