<svg width="17" height="17" xmlns="http://www.w3.org/2000/svg"><path d="M14.314 1c1.206 0 2.186.82 2.186 1.83v11.838c0 1.01-.98 1.832-2.187 1.832H3.187C1.98 16.5 1 15.678 1 14.67V2.83C1 1.82 1.98 1 3.187 1zm0 1.098H3.186c-.604 0-1.094.224-1.094.73v11.838c0 .506.492.73 1.094.73h11.127c.603 0 1.093-.224 1.093-.73V2.828c0-.506-.492-.73-1.094-.73zm-1.39 9.787c.335 0 .607.254.607.568 0 .313-.272.567-.607.567H6.938c-.335 0-.607-.254-.607-.567 0-.314.272-.568.607-.568zm-8.388 0a.568.568 0 110 1.135.568.568 0 010-1.135zm8.388-3.702c.335 0 .607.254.607.567 0 .314-.272.567-.607.567H6.938c-.335 0-.607-.253-.607-.567 0-.313.272-.567.607-.567zm-8.388 0a.567.567 0 110 1.134.567.567 0 010-1.134zm8.388-3.703c.335 0 .607.254.607.567 0 .314-.272.568-.607.568H6.938c-.335 0-.607-.254-.607-.568 0-.313.272-.567.607-.567zm-8.388 0a.567.567 0 110 1.135.567.567 0 010-1.135z" stroke-width=".3"/></svg>