<svg t="1599458149774" class="icon" viewBox="0 0 1024 1024" version="1.1" xmlns="http://www.w3.org/2000/svg" p-id="2149" xmlns:xlink="http://www.w3.org/1999/xlink" width="17" height="17"><defs><style type="text/css"></style></defs><path d="M1000 61.257143h-83.2c-12.571429 0-22.857143 10.285714-22.857143 22.857143s10.285714 22.857143 22.857143 22.857143H978.285714v316.571428H45.714286v-316.571428h793.257143c12.571429 0 22.857143-10.285714 22.857142-22.857143s-10.285714-22.857143-22.857142-22.857143H24c-13.257143 0-24 10.742857-24 24v360c0 13.257143 10.742857 24 24 24h31.657143v446.514286h-9.371429c-12.571429 0-22.857143 10.285714-22.857143 22.857142s10.285714 22.857143 22.857143 22.857143h932.342857c12.571429 0 22.857143-10.285714 22.857143-22.857143s-10.285714-22.857143-22.857143-22.857142h-19.428571V552c0-12.571429-10.285714-22.857143-22.857143-22.857143s-22.857143 10.285714-22.857143 22.857143v363.771429H757.485714V656c0-13.257143-10.742857-24-24-24H276c-13.257143 0-24 10.742857-24 24v259.885714H101.371429V469.257143H1000c13.257143 0 24-10.742857 24-24v-360c0-13.257143-10.742857-24-24-24zM297.714286 677.714286h413.942857v238.171428H297.714286V677.714286z" p-id="2150" fill="#ffffff"></path></svg>