<svg width="16" height="16" xmlns="http://www.w3.org/2000/svg"><path d="M14.64 5.75a.84.84 0 011.308.697v7.674a1.68 1.68 0 01-1.68 1.679H1.679A1.679 1.679 0 010 14.121V6.45a.84.84 0 011.314-.693l6.604 4.522 6.721-4.53zM1.258 14.12c0 .231.189.42.42.42h12.59a.42.42 0 00.42-.42V7.236L7.912 11.8 1.259 7.246v6.875z"/><path d="M5.9 1.584v1.259H3.777c-.212 0-.375.124-.411.272l-.009.064v4.616H2.098V3.179c0-.843.68-1.517 1.528-1.59l.151-.005H5.9zm4.178 0h2.092c.866 0 1.594.626 1.672 1.449l.007.146v4.616H12.59V3.179c0-.152-.136-.295-.331-.329l-.089-.007h-2.092v-1.26h2.092-2.092z"/><path d="M6.925.01h2.098c.927 0 1.679.751 1.679 1.679v1.049c0 .927-.752 1.678-1.679 1.678H6.925a1.679 1.679 0 01-1.68-1.678v-1.05c0-.927.752-1.678 1.68-1.678zm0 1.259a.42.42 0 00-.42.42v1.049c0 .23.189.42.42.42h2.098a.42.42 0 00.42-.42v-1.05a.42.42 0 00-.42-.42H6.925zm-.042 7.23l-.246-.921L8.13 4.992c.654-.248 1.07-.043 1.25.616-.251.428-.74 1.308-1.464 2.638l-1.033.253z"/></svg>