<svg width="18" height="17" xmlns="http://www.w3.org/2000/svg"><path d="M12.383 1.023c.39-.098.803.124.91.499l3.672 12.848c.108.381-.126.758-.521.858l-2.178.547c-.39.097-.802-.124-.91-.499L9.684 2.428c-.108-.381.126-.759.521-.858zm-8.389.023c.404 0 .74.314.74.702v13.301c0 .395-.33.703-.74.703v-.001H1.74c-.403 0-.74-.314-.74-.702V1.748c0-.394.332-.702.74-.702zm4.482 0c.403 0 .74.314.74.702V15.05c0 .394-.331.702-.74.7H6.222c-.403 0-.74-.313-.74-.7V1.747c0-.394.331-.702.74-.702zm4.095.656s-2.168.541-2.166.546c0 0 3.674 12.848 3.668 12.85 0 0 2.167-.54 2.165-.546 0 0-3.673-12.848-3.667-12.85zm-8.583.046s-2.243-.004-2.243.001c0 0 .001 12.385-.004 13.254v.048s2.242.005 2.242-.001c0 0-.002-12.385.004-13.254zm4.481 0a167.278 167.278 0 00-2.242.001l-.005 13.302 2.242-.001z" stroke-width=".5"/></svg>