<svg width="18" height="16" xmlns="http://www.w3.org/2000/svg"><path d="M7.933 12.482c.259 0 .48.186.525.44.053.306.305.45.55.44a.52.52 0 00.545-.41c.067-.283.282-.47.514-.47H13.8a1.6 1.6 0 001.6-1.6V2.6A1.6 1.6 0 0013.8 1h-3.733a1.52 1.52 0 00-1.051.429A1.59 1.59 0 007.933 1H4.2a1.6 1.6 0 00-1.6 1.6v8.282a1.6 1.6 0 001.6 1.6h3.733zm2.134-10.415H13.8c.295 0 .533.238.533.533v8.282a.533.533 0 01-.533.533h-3.733a1.51 1.51 0 00-.534.098V2.71c0-.367.252-.644.534-.644zm-6.4.533c0-.295.238-.533.533-.533h3.733c.295 0 .534.238.534.533v8.907a1.598 1.598 0 00-.534-.09H4.2a.533.533 0 01-.533-.534V2.6zm12.767 2.067a.533.533 0 00-.534.533v7.467a.533.533 0 01-.533.533h-3.733c-.572 0-1.101.305-1.387.8H7.719a1.602 1.602 0 00-1.386-.8H2.6a.533.533 0 01-.533-.533V5.2A.533.533 0 001 5.2v7.467a1.6 1.6 0 001.6 1.6h3.733c.243 0 .455.164.517.399.06.236.273.401.517.4H10.6a.533.533 0 00.517-.4.533.533 0 01.517-.4h3.733a1.6 1.6 0 001.6-1.6V5.2a.533.533 0 00-.533-.533zM5 4.467h1.886a.533.533 0 000-1.067H5a.533.533 0 100 1.067zM5 6.6h1.886a.533.533 0 000-1.067H5A.533.533 0 005 6.6z" stroke-width=".2"/></svg>