<svg width="17" height="16" xmlns="http://www.w3.org/2000/svg"><path d="M15.525 1c.022.006.045.015.068.019.565.102.99.52 1.07 1.087.033.226.019.46.014.69-.016.64-.5 1.17-1.136 1.245l-.162.018v7.499c0 .742-.289 1.35-.82 1.856-.417.398-.905.684-1.425.922-1.079.492-2.219.764-3.382.956l-.556.09h-.268l-.662-.108c-.965-.158-1.91-.389-2.823-.747-.619-.243-1.208-.538-1.72-.97-.646-.548-.988-1.226-.983-2.092.013-2.429.004-4.859.004-7.288V4.05c-.173 0-.337.006-.5-.001a1.309 1.309 0 01-1.202-.98c-.017-.066-.028-.134-.042-.2v-.683a.647.647 0 00.017-.068c.058-.412.274-.726.627-.932.153-.089.337-.126.507-.187h13.374zm-1.02 3.058H3.623c-.002.034-.004.064-.004.093l.001 7.415c0 .116.01.233.035.347.092.42.35.735.671 1.003.447.374.965.62 1.504.827.932.358 1.9.57 2.885.717.153.022.31.041.463.03.223-.019.444-.061.665-.098.95-.158 1.878-.399 2.766-.778.487-.208.947-.462 1.335-.83.373-.355.568-.777.566-1.308-.01-2.43-.004-4.859-.004-7.288v-.13zM9.45 5.285c.096.12.174.257.252.391.203.352.4.708.605 1.06.026.04.066.07.113.083.493.095.989.184 1.482.276a.918.918 0 01.581.329c.213.27.21.648-.03.937-.204.247-.434.471-.654.704-.156.165-.317.326-.472.494a.165.165 0 00-.039.117c.059.481.126.961.183 1.443.04.336-.036.636-.333.837-.268.182-.557.159-.84.034a88.784 88.784 0 01-1.37-.627.177.177 0 00-.168 0c-.444.207-.89.411-1.337.614-.24.107-.487.153-.74.052-.307-.122-.474-.405-.472-.845.027-.22.062-.507.099-.795.03-.243.066-.486.093-.73.003-.034-.02-.08-.045-.106-.341-.358-.685-.712-1.027-1.07-.169-.176-.278-.382-.274-.633.005-.333.242-.628.6-.717.302-.074.61-.124.915-.183.235-.045.471-.084.706-.133a.18.18 0 00.104-.08c.234-.405.456-.815.696-1.215a1.37 1.37 0 01.316-.373c.336-.264.788-.2 1.056.136zm-.607.644l-.063.11-.836 1.476a.156.156 0 01-.121.088c-.413.073-.824.151-1.236.228l-.568.108c.033.036.054.06.076.082l1.178 1.224c.026.028.05.078.046.114-.06.484-.124.967-.186 1.45-.015.115-.027.229-.042.355.042-.018.07-.028.096-.04.523-.238 1.046-.475 1.567-.715a.195.195 0 01.183.001c.383.178.767.352 1.151.526l.504.229a.183.183 0 00.005-.033l-.226-1.736c-.008-.063 0-.11.05-.16.357-.366.712-.736 1.067-1.105l.18-.19-.097-.02c-.568-.107-1.135-.214-1.703-.317a.165.165 0 01-.128-.093c-.28-.498-.56-.996-.843-1.493-.015-.027-.032-.054-.054-.09zm6.452-4.06c-4.3.003-8.598.004-12.897.003a1.36 1.36 0 00-.144.007.416.416 0 00-.374.395 4.22 4.22 0 00.003.503c.01.083.04.16.089.228.094.137.239.174.401.174 2.156-.001 4.313-.002 6.47-.001h6.435c.039 0 .078 0 .117-.002.195-.01.38-.144.402-.335a2.937 2.937 0 00-.002-.635c-.019-.181-.185-.337-.5-.337z" stroke-width=".4"/></svg>