<svg width="17" height="17" xmlns="http://www.w3.org/2000/svg"><path d="M14.861 1c1.07 0 1.938.87 1.94 1.94v1.49a.45.45 0 01-.898 0V2.94a1.041 1.041 0 00-1.04-1.04H2.94A1.04 1.04 0 001.9 2.94v8.535h14.004V9.41a.45.45 0 01.898 0v4.471a1.942 1.942 0 01-1.94 1.94H2.94c-1.07 0-1.938-.87-1.94-1.94V2.94C1.002 1.87 1.87 1 2.94 1zm1.042 11.375H1.9v1.506c0 .574.466 1.04 1.04 1.04h11.923c.574 0 1.039-.466 1.04-1.04v-1.506zm-2.532.635a.637.637 0 110 1.273.637.637 0 010-1.273zm-8.195.19a.45.45 0 010 .897h-1.49a.45.45 0 110-.898zm3.725 0a.45.45 0 010 .897h-1.49a.45.45 0 110-.898zM7.715 4c.206.01.386.14.44.32l1.203 3.975 1.26-2.093a.45.45 0 01.77-.005l.701 1.137h1.468a.45.45 0 010 .898h-1.72a.45.45 0 01-.383-.212l-.446-.724-1.402 2.33a.45.45 0 01-.818-.101L7.754 6.102l-.489 1.847a.446.446 0 01-.432.335H4.245a.45.45 0 010-.898h2.243l.803-3.051A.453.453 0 017.715 4z" stroke-width=".4"/></svg>