<svg width="18" height="18" xmlns="http://www.w3.org/2000/svg"><path d="M12.346 1.002c.624 0 1.12.504 1.128 1.128v2.2h-1.008v-2.2c0-.064-.056-.112-.12-.12H2.138c-.064 0-.112.056-.12.12v13.584c0 .072.048.128.12.128h10.208c.072 0 .128-.048.128-.12V13.65h1.008v2.04a1.137 1.137 0 01-1.128 1.152H2.138c-.624 0-1.12-.504-1.128-1.128V2.13c0-.624.504-1.12 1.128-1.128h10.208zm1.712 3.616a2.434 2.434 0 012.752 2.064.4.4 0 01-.08.352l-4.872 6.384a.38.38 0 01-.208.16l-3.12 1.344c-.08.104-.128.128-.184.128a.426.426 0 01-.288-.104c-.16-.112-.216-.312-.16-.496l.8-3.312a.566.566 0 01.104-.208l3.704-4.552 1.264-1.576a.489.489 0 01.288-.184zM9.482 11.85l-.44 1.816 1.68-.72v-.04a1.378 1.378 0 00-.472-.808 1.11 1.11 0 00-.768-.248zm3.592-4.672l-3.072 3.76c.296.072.576.2.824.376.32.232.568.544.72.904l3.016-3.944a1.37 1.37 0 00-.544-.8 1.49 1.49 0 00-.944-.296zm-6.152 2.44c.272 0 .496.224.496.496a.482.482 0 01-.464.496h-2.2a.498.498 0 01-.496-.496.51.51 0 01.496-.496h2.168zm2.592-2.672c.272 0 .496.224.496.496a.482.482 0 01-.464.496H4.754a.498.498 0 01-.496-.496.51.51 0 01.496-.496h4.76zm4.808-1.328l-.536.672c.288.08.552.216.792.392.264.192.488.44.648.728l.536-.744a1.503 1.503 0 00-1.44-1.048zM9.514 4.362c.272 0 .496.224.496.496a.482.482 0 01-.464.496h-.032v-.008h-4.76a.498.498 0 01-.496-.496.52.52 0 01.496-.488h4.76z" stroke-width=".4"/></svg>