<svg width="17" height="17" xmlns="http://www.w3.org/2000/svg"><g stroke="#AEB5BE" stroke-width=".3"><path d="M9.672 6.594a.625.625 0 00.625.625l5 .031a.625.625 0 000-1.25h-3.475l3.813-3.926a.625.625 0 000-.888.625.625 0 00-.887 0l-3.826 3.926V1.625a.625.625 0 00-1.25 0v4.969zM9.672 10.328a.625.625 0 01.625-.625l5-.031a.625.625 0 010 1.25h-3.475l3.813 3.926a.625.625 0 010 .888.625.625 0 01-.887 0l-3.826-3.927v3.488a.625.625 0 01-1.25 0v-4.969zM7.25 6.594a.625.625 0 01-.625.625l-5 .031a.625.625 0 010-1.25H5.1L1.286 2.074a.625.625 0 010-.888.625.625 0 01.888 0L6 5.112V1.625a.625.625 0 111.25 0v4.969zM7.25 10.328a.625.625 0 00-.625-.625l-5-.031a.625.625 0 000 1.25H5.1l-3.814 3.926a.625.625 0 000 .888.625.625 0 00.888 0L6 11.809v3.488a.625.625 0 101.25 0v-4.969z"/></g></svg>