<svg width="16" height="18" xmlns="http://www.w3.org/2000/svg"><path d="M2.714 5.571A1.714 1.714 0 011 3.857V2.714C1 1.768 1.768 1 2.714 1h6.857c.947 0 1.715.768 1.715 1.714v1.143c0 .947-.768 1.714-1.715 1.714H4.43V8.43h1.14c0-.947.768-1.715 1.715-1.715h6.857c.947 0 1.714.768 1.714 1.715v1.14c0 .947-.767 1.715-1.714 1.715H7.286A1.714 1.714 0 015.57 9.57H4.43v4c0 .276.197.513.468.563l.103.009h.571c0-.947.768-1.714 1.715-1.714h6.857c.947 0 1.714.767 1.714 1.714v1.143c0 .946-.767 1.714-1.714 1.714H7.286a1.714 1.714 0 01-1.715-1.714H5a1.714 1.714 0 01-1.706-1.55l-.008-.165v-8h-.572zm11.429 8H7.286a.571.571 0 00-.563.469l-.009.103v1.143c0 .276.197.512.469.562l.103.01h6.857a.571.571 0 00.562-.47l.01-.102v-1.143a.571.571 0 00-.47-.562l-.102-.01zm0-5.714H7.286a.571.571 0 00-.563.469l-.009.103V9.57c0 .276.197.513.469.563l.103.009h6.857a.571.571 0 00.562-.469l.01-.103V8.43a.571.571 0 00-.47-.563l-.102-.009zM9.57 2.143H2.714a.571.571 0 00-.562.468l-.01.103v1.143c0 .276.198.513.47.562l.102.01h6.857a.571.571 0 00.563-.469l.009-.103V2.714a.571.571 0 00-.469-.562l-.103-.01z" stroke-width=".2"/></svg>