<svg width="16" height="16" xmlns="http://www.w3.org/2000/svg"><path d="M12.431 7.105a.888.888 0 01-.887-.888V4.442H6.217a.888.888 0 110-1.775h6.214c.49 0 .888.397.888.887v2.663c0 .49-.397.888-.888.888zM9.768 13.32H3.554a.888.888 0 01-.887-.888V9.768a.888.888 0 111.775 0v1.776h5.326a.888.888 0 010 1.775zm-3.55-6.214H.89a.888.888 0 01-.887-.888V.891A.887.887 0 01.89.004h5.326a.888.888 0 01.888.887v5.326a.888.888 0 01-.888.888zM1.778 5.33h3.55V1.78H1.78v3.55zm13.315 10.652H9.768a.888.888 0 01-.887-.888V9.768a.888.888 0 01.887-.887h5.326a.888.888 0 01.888.887v5.326a.888.888 0 01-.888.888zm-4.438-1.775h3.55v-3.551h-3.55v3.55z"/></svg>