<svg width="15" height="18" xmlns="http://www.w3.org/2000/svg"><path d="M9.713 1.857H2.851c-.543 0-.994.465-.994 1.051v12.184c0 .586.451 1.05.994 1.05h9.441c.543 0 .994-.464.994-1.05V5.465c0-.596-.233-1.167-.648-1.594l-1.287-1.322a2.286 2.286 0 00-1.638-.692zM12.292 17H2.851C1.829 17 1 16.146 1 15.092V2.908C1 1.854 1.829 1 2.85 1h7.225c.617 0 1.208.25 1.638.691l1.782 1.832c.415.426.648.998.648 1.594v9.975c0 1.054-.829 1.908-1.851 1.908zm-1.955-6.915a.463.463 0 10.926 0V8.643a.571.571 0 00-.572-.572H8.177v-.465a.463.463 0 10-.926 0v.465h-2.36a.571.571 0 00-.571.572v1.442a.463.463 0 10.926 0v-.8c0-.157.128-.285.285-.285h1.72v1.085a.463.463 0 10.926 0V9h1.874c.158 0 .286.128.286.286v.799zM7.714 6.833a.772.772 0 00.772-.774.777.777 0 00-.772-.773.774.774 0 000 1.548zM5.4 11.941a.78.78 0 00-.773-.774.776.776 0 00-.77.774.78.78 0 00.774.773c.42 0 .769-.348.769-.773zm3.086 0a.78.78 0 00-.774-.774c-.42 0-.77.348-.77.774a.78.78 0 00.774.773c.42 0 .77-.348.77-.773zm3.085 0a.78.78 0 00-.773-.774c-.42 0-.77.348-.77.774a.78.78 0 00.774.773c.42 0 .77-.348.77-.773z" stroke-width=".5"/></svg>