<svg width="17" height="17" xmlns="http://www.w3.org/2000/svg"><g stroke="#AEB5BE" stroke-width=".3"><path d="M15.922 1.656a.625.625 0 00-.625-.625l-5-.031a.625.625 0 000 1.25h3.475L9.958 6.176a.625.625 0 000 .888.625.625 0 00.888 0l3.826-3.926v3.487a.625.625 0 001.25 0V1.656zM15.922 15.266a.625.625 0 01-.625.625l-5 .03a.625.625 0 010-1.25h3.475l-3.814-3.925a.625.625 0 010-.888.625.625 0 01.888 0l3.826 3.926v-3.487a.625.625 0 011.25 0v4.969zM1 1.656a.625.625 0 01.625-.625l5-.031a.625.625 0 010 1.25H3.15l3.814 3.926a.625.625 0 010 .888.625.625 0 01-.888 0L2.25 3.138v3.487a.625.625 0 11-1.25 0V1.656zM1 15.266a.625.625 0 00.625.625l5 .03a.625.625 0 000-1.25H3.15l3.814-3.925a.625.625 0 000-.888.625.625 0 00-.888 0L2.25 13.784v-3.487a.625.625 0 10-1.25 0v4.969z"/></g></svg>