<svg width="16" height="16" xmlns="http://www.w3.org/2000/svg"><path d="M9.716 11.077h2.592c.357 0 .647.275.647.615 0 .34-.29.615-.648.615H9.716c-.358 0-.648-.275-.648-.616 0-.339.29-.614.648-.614zm2.592-2.462c.357 0 .647.275.647.616 0 .34-.29.615-.648.615H9.716c-.358 0-.648-.276-.648-.616 0-.34.29-.616.648-.616l2.592.001zm-6.004 2.461c.232-.38.232-.85 0-1.23a1.309 1.309 0 00-1.122-.616c-.716 0-1.296.552-1.296 1.23 0 .68.58 1.232 1.296 1.232.464 0 .89-.234 1.122-.616zm-3.713-.615C2.591 9.1 3.751 8 5.181 8c1.433 0 2.593 1.102 2.593 2.46 0 1.36-1.16 2.462-2.592 2.462-1.43 0-2.59-1.101-2.59-2.461zm11.66 4.308V6.154H1.296v8.615h12.955zm.647-13.539c.172 0 .336.065.458.181a.6.6 0 01.19.435v13.538c0 .34-.29.616-.648.616H.648C.29 16 0 15.724 0 15.384V1.846a.6.6 0 01.19-.435.666.666 0 01.458-.18h3.238V.647a.648.648 0 111.296 0v.582h5.182V.648a.648.648 0 011.296 0v.582h3.238zm-3.886 2.462a.648.648 0 01-.648-.648v-.582H5.182v.582a.648.648 0 01-1.296 0v-.582h-2.59v2.461h12.955V2.462H11.66v.582c0 .358-.29.648-.648.648z"/></svg>