<svg width="17" height="17" xmlns="http://www.w3.org/2000/svg"><path d="M15.226 9.561c.744 0 1.351.607 1.351 1.352v4.314c0 .745-.607 1.352-1.351 1.352h-4.32a1.352 1.352 0 01-1.346-1.352v-4.314c0-.745.607-1.352 1.351-1.352h4.315zM1.519 10.812c.187 0 .352.114.42.292l.005.014v.005c1.132 2.182 3.187 3.648 5.639 4.027h.064a.507.507 0 01.479.511c0 .279-.2.48-.484.484l-.105-.004a.355.355 0 01-.128-.023l-.023-.01-.027-.004c-1.977-.32-3.78-1.301-5.068-2.753l-.32-.36v1.47a.453.453 0 01-.452.451h-.064a.453.453 0 01-.452-.452v-3.182c.005-.014.005-.028.01-.041l.004-.023a.593.593 0 01.014-.069v-.009a.45.45 0 01.424-.324h.064zm13.547-.164h-3.981a.428.428 0 00-.425.429v3.981a.413.413 0 00.42.43h3.986a.428.428 0 00.425-.43v-3.981a.428.428 0 00-.425-.43zM6.83 1.009c.745 0 1.352.608 1.352 1.352v4.314c0 .745-.607 1.352-1.352 1.352H2.51a1.352 1.352 0 01-1.347-1.352V2.361c0-.744.607-1.352 1.352-1.352h4.314zm3.31.612l.019.005h.018a.43.43 0 01.183.045l.023.01.022.004c1.94.37 3.635 1.338 4.89 2.79l.32.37v-1.48c0-.25.205-.452.452-.452h.064c.251 0 .452.206.452.457v3.19a.453.453 0 01-.452.452h-.069a.414.414 0 01-.246-.09l-.005-.006a.46.46 0 01-.187-.187 7.565 7.565 0 00-5.305-4.054v-.037l-.178-.004a.508.508 0 010-1.014zm-3.474.475H2.679a.428.428 0 00-.425.43V6.51a.4.4 0 00.124.297.413.413 0 00.301.123h3.986a.428.428 0 00.425-.429V2.525a.428.428 0 00-.425-.43z" stroke="#AEB5BE" stroke-width=".6"/></svg>