<svg width="13" height="16" xmlns="http://www.w3.org/2000/svg"><path d="M10.284 4.654h-.79V3.161a3.16 3.16 0 00-6.321 0v1.493h-.79a2.37 2.37 0 00-2.37 2.37v6.322a2.37 2.37 0 002.37 2.37h7.901a2.37 2.37 0 002.37-2.37V7.025a2.37 2.37 0 00-2.37-2.37zm-5.53-1.493a1.628 1.628 0 011.58-1.667 1.628 1.628 0 011.58 1.667v1.493h-3.16V3.161zm6.32 10.185a.79.79 0 01-.79.79H2.383a.79.79 0 01-.79-.79V7.025a.79.79 0 01.79-.79h7.901a.79.79 0 01.79.79v6.32z"/><path d="M6.333 7.815a2.37 2.37 0 100 4.74 2.37 2.37 0 000-4.74zm0 3.16a.79.79 0 110-1.58.79.79 0 010 1.58z"/></svg>