<svg width="15" height="17" xmlns="http://www.w3.org/2000/svg"><path d="M11.132 1.007a.5.5 0 01.508.508v.443h1.84c.537 0 .951.445.951.952v12.94c.03.507-.414.951-.921.951H1.966a.955.955 0 01-.951-.952V2.91c0-.537.444-.951.951-.951h1.87v-.444c0-.284.22-.508.508-.508.287 0 .507.22.507.508v.443h5.774v-.443c0-.284.22-.508.507-.508zm2.314 1.967H11.64v.503a.498.498 0 01-.508.448.501.501 0 01-.507-.507v-.445H4.85v.412c0 .317-.22.54-.507.54a.501.501 0 01-.508-.507v-.445H2.06v12.783h11.386V2.974zM4.25 12.49a.601.601 0 110 1.202.601.601 0 010-1.202zm7.072.06c.284 0 .475.254.475.538 0 .317-.22.538-.475.538H6.154c-.254 0-.475-.254-.475-.538 0-.317.22-.538.475-.538zM4.25 9.128a.601.601 0 110 1.202.601.601 0 010-1.202zm7.072.093c.284 0 .475.22.475.538 0 .317-.22.538-.475.538H6.154c-.254 0-.475-.254-.475-.538 0-.317.22-.538.475-.538zM4.25 5.956a.601.601 0 110 1.202.601.601 0 010-1.202zm7.072.063c.284 0 .475.254.475.538 0 .317-.22.537-.475.537H6.154c-.254 0-.475-.253-.475-.537 0-.318.22-.538.475-.538z" stroke-width=".2"/></svg>