<svg width="17" height="16" xmlns="http://www.w3.org/2000/svg"><g stroke-width=".3"><path d="M3.82 8.897h2.03c.236 0 .45-.148.53-.372l.89-2.41L8.948 9.95a.572.572 0 00.52.341h.012a.572.572 0 00.517-.36l1.432-3.636h2.218a.568.568 0 000-1.136h-2.604a.565.565 0 00-.528.36L9.439 8.243 7.745 4.366a.566.566 0 00-1.052.031L5.45 7.76H3.82a.568.568 0 000 1.137zm0 2.759H7.1a.568.568 0 000-1.136H3.82a.567.567 0 100 1.136z"/><path d="M16.29 1.568A.57.57 0 0015.722 1H1.572a.568.568 0 00-.568.568v12.716c0 .315.255.568.568.568h14.15a.57.57 0 00.568-.568v-2.957h-.001a.572.572 0 10-1.138.104v2.287H2.141V2.134h13.01V9.19c-.003.023-.003.045-.003.068a.572.572 0 001.142 0v-7.69z"/></g></svg>