<svg width="17" height="17" xmlns="http://www.w3.org/2000/svg"><path d="M9.578 1.016a.566.566 0 010 1.133H5.232a.536.536 0 01-.17.025h-2.21a.719.719 0 00-.72.719v11.53a.72.72 0 00.72.718h12.007a.719.719 0 00.719-.718v-9.35a.566.566 0 111.134.003v9.349c0 1.022-.83 1.853-1.853 1.853H8.887a.598.598 0 01-.17.026H2.851A1.855 1.855 0 011 14.45V2.869c0-1.022.83-1.853 1.851-1.853zm-5.025 9.996a.567.567 0 01.56.575l-.018 1.41a.565.565 0 01-.566.56.568.568 0 01-.567-.575l.016-1.409a.564.564 0 01.575-.56zm5.706-1.476a.567.567 0 01.564.57l-.018 2.886a.567.567 0 01-.566.565.568.568 0 01-.569-.57l.016-2.886a.567.567 0 01.567-.565zM7.636 8.342c.311 0 .566.255.564.569l-.016 4.08a.566.566 0 01-.566.564.564.564 0 01-.567-.569l.016-4.08c0-.311.255-.564.567-.564zm5.534-1.691a.57.57 0 01.568.568l-.018 5.77a.566.566 0 01-.566.566.567.567 0 01-.568-.569l.017-5.769c0-.314.255-.566.567-.566zm1.758-5.473a.38.38 0 01.456.458l-.795 3.282a.376.376 0 01-.367.288.386.386 0 01-.269-.11l-.829-.83-2.715 2.63a.565.565 0 01-.772.015L7.177 4.71 3.944 7.825a.566.566 0 11-.786-.817l3.614-3.482a.569.569 0 01.772-.013L10 5.715l2.323-2.25-.857-.858a.38.38 0 01.178-.634z" stroke-width=".3"/></svg>