<svg width="18" height="15" xmlns="http://www.w3.org/2000/svg"><path d="M1 2.818C1 1.81 1.824 1 2.83 1h12.291c1.006 0 1.83.809 1.83 1.818v10.095c0 1.01-.824 1.819-1.83 1.819H2.831A1.824 1.824 0 011 12.913V2.818zm1.83-.647c-.37 0-.66.295-.66.647v10.095c0 .353.29.648.66.648h12.291c.37 0 .66-.295.66-.648V2.818a.654.654 0 00-.66-.647H2.831zm1.248 1.69a.585.585 0 01.431.122l1.687 1.332 1.64-1.327a.586.586 0 01.736.91L6.786 6.343v.553h1.798a.585.585 0 110 1.17H6.786v.988l1.804.02a.585.585 0 11-.012 1.17l-1.792-.019v1.155a.585.585 0 11-1.17 0v-1.16H3.832a.585.585 0 110-1.171h1.782v-.981H3.833a.585.585 0 110-1.171h1.782v-.55L3.784 4.904a.585.585 0 01.294-1.041zm8.222-.003c.324 0 .586.262.586.585V5.5h1.38a.585.585 0 010 1.17h-1.38v1.01a.585.585 0 01-1.17 0V6.671h-1.34a.585.585 0 110-1.17h1.34V4.442c0-.323.261-.585.584-.585zm-2.432 6.828c0-.323.262-.585.586-.585h3.578a.585.585 0 010 1.17h-3.578a.585.585 0 01-.586-.585z" stroke-width=".2"/></svg>