<svg width="17" height="15" xmlns="http://www.w3.org/2000/svg"><path d="M15.779 14.35H1.806A.803.803 0 011 13.544c0-.448.358-.807.806-.807H15.78c.448 0 .806.359.806.807.09.447-.358.806-.806.806zm0-5.822h-8.33a.803.803 0 01-.806-.806c0-.448.358-.806.806-.806h8.42c.447 0 .805.358.805.806 0 .447-.447.806-.895.806zm-11.644 1.88L1.179 7.902a.272.272 0 010-.359l2.866-2.507c.09-.09.18 0 .18 0v5.284c0 .09-.09.18-.18.18l.09-.09zm11.644-7.792H1.806A.803.803 0 011 1.81c0-.448.358-.806.806-.806H15.78c.448 0 .806.358.806.806.09.448-.358.806-.806.806z" stroke-width=".3"/></svg>