<svg width="17" height="15" xmlns="http://www.w3.org/2000/svg"><path d="M16.162 1.012H1.538a.527.527 0 00-.528.528v9.568c0 .296.24.528.528.528H3.77c.16 0 .312-.072.416-.2l2.976-3.688 1.36 1.12c.216.176.536.16.728-.048l2.64-2.848c.256.16.56.248.88.248.936 0 1.704-.76 1.704-1.704 0-.936-.76-1.704-1.704-1.704-.936 0-1.704.76-1.704 1.704 0 .224.048.44.128.64L8.802 7.748 7.418 6.604a.535.535 0 00-.752.072L3.514 10.58H2.066V2.076h13.56v8.504H8.298a.527.527 0 00-.528.528v2.608H4.65a.527.527 0 100 1.056h7.152a.527.527 0 100-1.056h-2.96v-2.072h7.328c.296 0 .528-.24.528-.528V1.548a.536.536 0 00-.536-.536zm-3.4 2.88c.352 0 .64.288.64.64 0 .352-.288.64-.64.64a.642.642 0 01-.64-.64c0-.352.288-.64.64-.64z" stroke-width=".2"/></svg>