<svg width="16" height="16" xmlns="http://www.w3.org/2000/svg"><path d="M7.901 15.802A7.901 7.901 0 117.901 0a7.901 7.901 0 010 15.802zm0-14.222a6.321 6.321 0 100 12.642 6.321 6.321 0 000-12.642z"/><path d="M11.73 5.647l-1.375-1.375a1.004 1.004 0 00-1.335-.035L4.504 8.753a1.004 1.004 0 00-.286.607l-.216 2.093a.502.502 0 00.502.547h.045l2.093-.19c.229-.024.443-.125.607-.287l4.516-4.516a.963.963 0 00-.035-1.36zm-5.179 5.159l-1.505.14.135-1.505 2.836-2.8L9.37 7.996l-2.82 2.81zm3.473-3.483L8.679 5.978l.979-1.003 1.37 1.37-1.004.978z" stroke-width=".4"/></svg>