<svg width="17" height="17" xmlns="http://www.w3.org/2000/svg"><path d="M6.051 12.47a.467.467 0 00.35-.152.542.542 0 00.142-.375.547.547 0 00-.144-.374.473.473 0 00-.348-.155h-2.23c-.271 0-.491.238-.491.529 0 .291.22.529.491.529h2.23v-.002zm1.764 2.973v-.022H2.466a.464.464 0 01-.342-.153.541.541 0 01-.143-.37V2.6c0-.138.051-.272.143-.37a.47.47 0 01.342-.153h10.692a.47.47 0 01.347.15.54.54 0 01.145.371v5.495c0 .291.22.528.49.528.272 0 .492-.237.492-.528V2.6a1.643 1.643 0 00-.424-1.132A1.42 1.42 0 0013.158 1H2.466c-.393 0-.768.169-1.044.47a1.63 1.63 0 00-.42 1.021V15.01c.02.383.167.747.42 1.021.276.301.65.47 1.044.47h5.35c.27 0 .49-.237.49-.529 0-.29-.22-.528-.49-.528zm1.146-7.418H3.82c-.271 0-.491.237-.491.528 0 .292.22.529.491.529h5.14a.467.467 0 00.349-.152.542.542 0 00.142-.375.547.547 0 00-.144-.374.469.469 0 00-.347-.156h0zM3.82 4.62c-.271 0-.491.237-.491.528 0 .292.22.529.491.529h7.989c.27-.003.486-.239.491-.529-.003-.29-.222-.524-.491-.528H3.82zm12.516 6.933a.526.526 0 00-.775 0l-3.095 3.33a.174.174 0 01-.126.057.174.174 0 01-.125-.056l-1.552-1.69a.526.526 0 00-.775 0 .628.628 0 000 .839l2.063 2.216a.529.529 0 00.388.176.527.527 0 00.387-.176l3.607-3.856a.623.623 0 00.003-.84h0z" stroke="#FFF" stroke-width=".6"/></svg>