<svg width="18" height="18" xmlns="http://www.w3.org/2000/svg"><path d="M13.288 1c.864 0 1.568.76 1.568 1.693v7.248h.576c.864 0 1.568.76 1.568 1.694v3.67C17 16.24 16.296 17 15.432 17H2.568C1.704 17 1 16.24 1 15.307v-3.672c0-.935.704-1.695 1.568-1.695h.576V2.693C3.144 1.76 3.848 1 4.712 1h8.576zM6.004 11.27H2.568c-.187 0-.337.165-.337.366v3.67c0 .2.152.365.337.365h12.864c.183 0 .337-.168.337-.366v-3.669c0-.199-.154-.365-.337-.365h-3.436a.335.335 0 00-.307.213l-.573 1.36c-.162.41-.553.682-.993.692H7.877a1.093 1.093 0 01-.993-.692l-.573-1.36a.337.337 0 00-.307-.213zm7.284-8.94H4.712c-.187 0-.337.163-.337.365V9.94h1.629c.613 0 1.173.39 1.428.994l.535 1.27h2.066l.535-1.27c.253-.604.813-.994 1.427-.994h1.632V2.693c0-.197-.155-.365-.338-.365l-.001.001zm-2.79 4.542c.34 0 .617.299.617.665 0 .367-.276.666-.616.666H7.5c-.34 0-.616-.299-.616-.667 0-.365.276-.664.616-.664h3zm1.129-2.885c.34 0 .616.297.616.665 0 .367-.276.664-.616.664H6.375c-.34 0-.616-.297-.616-.664 0-.368.276-.665.616-.665h5.252z" stroke-width=".3"/></svg>