<svg width="16" height="16" xmlns="http://www.w3.org/2000/svg"><path d="M15.694 7.27a.87.87 0 00-.531-.748L13.29 5.72l1.968-1.132a.87.87 0 00.435-.801.87.87 0 00-.531-.75L8.197.07a.87.87 0 00-.68 0L.553 3.039a.87.87 0 00-.532.749.87.87 0 00.436.8l1.968 1.133-1.872.8a.87.87 0 00-.532.75.87.87 0 00.436.8l1.968 1.133-1.872.8a.87.87 0 00-.532.75.87.87 0 00.436.8l6.966 4.006a.87.87 0 00.87 0l6.967-4.005a.87.87 0 00.435-.801.87.87 0 00-.531-.75l-1.872-.8 1.968-1.132a.87.87 0 00.435-.801zM7.857 1.82l5.016 2.133-5.016 2.882-5.015-2.882L7.857 1.82zm-.435 6.774a.87.87 0 00.87 0l3.11-1.741 1.47.627-5.015 2.838-5.015-2.882 1.471-.627 3.109 1.785zm5.45 2.325l-5.015 2.882-5.015-2.882 1.471-.627 3.109 1.785a.87.87 0 00.87 0l3.11-1.785 1.47.627z"/></svg>