<svg width="15" height="16" xmlns="http://www.w3.org/2000/svg"><path d="M.894 15.75c-.073 0-.22 0-.294-.073-.22-.074-.368-.22-.515-.441l-.074-.147V2.215C.011.965.968.008 2.218.008h9.564c1.25 0 2.207.956 2.207 2.207v12.653c0 .515-.368.883-.883.883h-.147l-.221-.074L7 12.882l-5.738 2.795c-.073 0-.22.074-.368.074zM2.218 1.48c-.441 0-.735.294-.735.735V13.91L7 11.263l5.517 2.648V2.215c0-.441-.294-.736-.735-.736H2.218z"/><path d="M9.648 4.716H3.763c-.441 0-.735-.294-.735-.736 0-.44.294-.735.735-.735h5.885c.442 0 .736.294.736.735a.737.737 0 01-.736.736zm0 3.678H3.763c-.441 0-.735-.294-.735-.735 0-.442.294-.736.735-.736h5.885c.442 0 .736.294.736.736a.737.737 0 01-.736.735z"/></svg>