<svg width="16" height="16" xmlns="http://www.w3.org/2000/svg"><path d="M13.474 1.74h-.814V.702A.695.695 0 0011.958 0a.695.695 0 00-.702.702v1.01H4.884V.702A.695.695 0 004.182 0a.695.695 0 00-.701.702v1.01H2.246A2.252 2.252 0 000 3.958v9.768a2.252 2.252 0 002.246 2.246h11.228a2.252 2.252 0 002.245-2.246v-9.74a2.234 2.234 0 00-2.245-2.246zm.842 12.014a.827.827 0 01-.842.842H2.246a.827.827 0 01-.842-.842V3.986c0-.477.364-.842.842-.842H3.48v.365c0 .393.308.702.701.702a.695.695 0 00.702-.702v-.393h6.4v.393c0 .393.309.702.702.702a.695.695 0 00.702-.702v-.393h.786c.477 0 .842.365.842.842v9.796z"/><path d="M12.52 11.06H8.055a.695.695 0 00-.702.701c0 .393.31.702.702.702h4.463a.695.695 0 00.702-.702.695.695 0 00-.702-.701zm0-5.11H8.055a.695.695 0 00-.702.703c0 .393.31.701.702.701h4.463a.695.695 0 00.702-.701.695.695 0 00-.702-.702zm-7.467-.448L3.76 6.793l-.449-.45a.543.543 0 00-.786 0 .543.543 0 000 .787l.842.842a.554.554 0 00.393.168c.14 0 .281-.056.393-.168L5.84 6.288a.543.543 0 000-.786c-.225-.225-.59-.225-.786 0zm-.028 4.52H3.62a.995.995 0 00-.982.982v1.403c0 .533.449.982.982.982h1.404a.994.994 0 00.982-.982v-1.403a.995.995 0 00-.982-.983zm.14 2.385c0 .084-.056.14-.14.14H3.62c-.084 0-.14-.056-.14-.14v-1.403c0-.085.056-.14.14-.14h1.404c.084 0 .14.055.14.14v1.403z"/></svg>