<svg width="17" height="17" xmlns="http://www.w3.org/2000/svg"><path d="M8.333 14.89v1.207H5.895V14.89h2.438zm6.203-4.827a.603.603 0 01.603.41l1.728 5.624H9.552V14.89h5.757l-1.207-3.62h-1.576a.603.603 0 110-1.207h2.01zm-9.252 0a.603.603 0 110 1.206H3.708l-1.207 3.62h2.175v1.208H1.02l1.652-5.625a.603.603 0 01.603-.41h2.01zm5.431 2.413a.603.603 0 110 1.207h-3.62a.603.603 0 010-1.207h3.62zM8.904 1.01a4.779 4.779 0 014.828 4.719 4.695 4.695 0 01-2.413 4.074L9.412 11.65c-.309.3-.801.3-1.11 0L6.31 9.718a4.677 4.677 0 01-2.234-3.99A4.779 4.779 0 018.904 1.01zm.007 1.207h-.006a3.567 3.567 0 00-3.62 3.51v.002a3.489 3.489 0 001.724 3.018l.061.037.054.047 1.78 1.672 1.715-1.647.073-.037a3.5 3.5 0 001.81-3.06 3.567 3.567 0 00-3.59-3.542zm-.007 1.257a2.113 2.113 0 110 4.226 2.113 2.113 0 010-4.226zm-.462 1.25a.906.906 0 10.925 1.558.906.906 0 00-.925-1.558z" stroke-width=".2"/></svg>