<svg width="17" height="14" xmlns="http://www.w3.org/2000/svg"><path d="M8.975 13.702a.426.426 0 01-.253-.087l-.004-.002-.003-.001-.035-.007a16.894 16.894 0 00-3.83-.473c-1.267 0-2.355.18-3.233.539a.425.425 0 01-.472-.115.52.52 0 01-.132-.35V2.144a.5.5 0 01.295-.466c.275-.11 1.753-.665 3.79-.665 1.287 0 2.554.216 3.767.645l.006.001.005-.001c.39-.151 1.816-.645 3.736-.645 1.305 0 2.59.224 3.819.665a.49.49 0 01.31.471v10.972c0 .274-.201.496-.449.496a.418.418 0 01-.099-.012 16.894 16.894 0 00-3.829-.473c-1.268 0-2.356.18-3.234.539a.42.42 0 01-.155.03zm3.62-11.892a10.317 10.317 0 00-3.335.546l-.012.004v10.427l.022-.008c.88-.295 1.921-.445 3.094-.445 1.543 0 2.94.258 3.636.41l.021.005.001-10.38-.012-.005a10.647 10.647 0 00-3.378-.555l-.001-.098h-.036v.1zm-7.514 0c-1.635.003-2.876.383-3.334.546l-.012.004-.001 10.427.023-.008c.88-.295 1.921-.445 3.093-.445 1.544 0 2.94.258 3.636.41l.021.005.001-10.38-.012-.005a10.622 10.622 0 00-3.378-.555l-.001-.097H5.08v.098zm5.536 7.92c-.163 0-.306-.122-.348-.296l-.001-.003a.43.43 0 01.041-.31.364.364 0 01.233-.182c.288-.067.75-.16 1.309-.22a9.63 9.63 0 011.003-.054c.697 0 1.333.087 1.893.259.095.03.177.101.223.198.047.098.055.21.022.315a.365.365 0 01-.34.27.33.33 0 01-.096-.015c-.494-.152-1.069-.229-1.705-.229-.922 0-1.748.16-2.16.256a.25.25 0 01-.074.01zm-7.528 0c-.163 0-.306-.122-.348-.296l-.001-.002a.434.434 0 01.041-.31.364.364 0 01.233-.182c.288-.067.75-.16 1.309-.22a9.63 9.63 0 011.002-.054c.698 0 1.334.087 1.893.259.096.03.178.101.224.198.047.098.055.21.022.314a.365.365 0 01-.34.27.33.33 0 01-.096-.015c-.494-.152-1.069-.229-1.705-.229-.922 0-1.749.16-2.16.256a.272.272 0 01-.074.01zm7.528-2.275a.37.37 0 01-.348-.295l-.001-.003a.43.43 0 01.041-.31.364.364 0 01.233-.181c.29-.068.751-.162 1.31-.22a9.604 9.604 0 011.002-.055c.697 0 1.333.087 1.893.26a.371.371 0 01.223.198c.047.098.055.21.022.313a.366.366 0 01-.34.27.33.33 0 01-.096-.014c-.494-.152-1.069-.229-1.705-.229-.922 0-1.748.16-2.16.256a.271.271 0 01-.074.01zm-7.527 0a.368.368 0 01-.348-.294v-.004a.435.435 0 01.04-.31.364.364 0 01.233-.181c.29-.068.752-.162 1.31-.22a9.616 9.616 0 011.002-.055c.697 0 1.334.087 1.893.26a.373.373 0 01.224.198.43.43 0 01.022.313.366.366 0 01-.34.27.33.33 0 01-.097-.014c-.494-.152-1.068-.229-1.704-.229-.922 0-1.749.16-2.16.256a.33.33 0 01-.075.01zm7.527-2.46a.368.368 0 01-.348-.295v-.003a.43.43 0 01.041-.31.364.364 0 01.232-.182c.29-.067.752-.16 1.31-.22a9.604 9.604 0 011.002-.054c.698 0 1.334.087 1.893.259.096.03.178.102.224.198.047.098.055.21.022.314a.366.366 0 01-.34.27.33.33 0 01-.096-.014c-.494-.152-1.068-.229-1.705-.229-.922 0-1.749.16-2.16.256a.32.32 0 01-.075.01zM3.09 4.992a.37.37 0 01-.35-.292v-.003a.434.434 0 01.041-.31.364.364 0 01.232-.181c.29-.068.752-.162 1.31-.22a9.604 9.604 0 011.002-.055c.698 0 1.334.087 1.893.259.096.03.178.102.224.199a.43.43 0 01.022.313.365.365 0 01-.34.27.33.33 0 01-.096-.015c-.495-.152-1.069-.229-1.705-.229-.922 0-1.749.16-2.16.256a.246.246 0 01-.074.01z" stroke-width=".5"/></svg>