<svg width="15" height="16" xmlns="http://www.w3.org/2000/svg"><path d="M.944 6.535h4.683a.937.937 0 00.936-.93V.95a.937.937 0 00-.936-.93H.944a.937.937 0 00-.937.93v4.655c0 .512.422.93.937.93zm.936-4.654h2.81v2.793H1.88V1.88zM14.056.019H9.373a.937.937 0 00-.936.931v4.655c0 .512.421.93.936.93h4.683a.937.937 0 00.937-.93V.95a.937.937 0 00-.937-.93zm-.936 4.655h-2.81V1.88h2.81v2.793zm.936 4.654H.944a.937.937 0 00-.937.931c0 .512.422.931.937.931h13.112a.937.937 0 00.937-.93.937.937 0 00-.937-.932zm0 4.655H.944a.937.937 0 00-.937.93c0 .513.422.932.937.932h13.112a.937.937 0 00.937-.931.937.937 0 00-.937-.931z"/></svg>