<svg width="15" height="15" xmlns="http://www.w3.org/2000/svg"><path d="M.885 6.127h4.39a.878.878 0 00.878-.873V.891a.878.878 0 00-.878-.873H.885A.878.878 0 00.007.89v4.363c0 .48.395.873.878.873zm.878-4.364h2.634v2.619H1.763V1.763zM13.178.018h-4.39a.878.878 0 00-.879.873v4.363c0 .48.395.873.878.873h4.39a.878.878 0 00.879-.873V.891a.878.878 0 00-.878-.873zM12.3 4.382H9.665V1.763H12.3v2.619zm.878 4.363H.885a.878.878 0 00-.878.873c0 .48.395.873.878.873h12.293a.878.878 0 00.878-.873.878.878 0 00-.878-.873zm0 4.364H.885a.878.878 0 00-.878.873c0 .48.395.872.878.872h12.293a.878.878 0 00.878-.872.878.878 0 00-.878-.873z"/></svg>