<svg width="18" height="15" xmlns="http://www.w3.org/2000/svg"><path d="M15.45 13.864H2.555a1.55 1.55 0 01-1.548-1.548v-9.76a1.55 1.55 0 011.548-1.549h12.894a1.55 1.55 0 011.548 1.548v9.761a1.55 1.55 0 01-1.547 1.548zM2.555 1.954a.602.602 0 00-.602.601v9.761c0 .332.27.601.602.602h12.894c.333 0 .602-.27.602-.602v-9.76a.602.602 0 00-.602-.603H2.555zm8.72 3.211c-.236 0-.426-.211-.426-.473 0-.261.19-.473.425-.473h3.15c.235 0 .425.212.425.473 0 .262-.19.473-.425.473h-3.15zm0 2.867c-.236 0-.426-.212-.426-.473 0-.262.19-.473.425-.473h3.15c.235 0 .425.211.425.473 0 .261-.19.473-.425.473h-3.15zm0 2.652c-.236 0-.426-.212-.426-.473s.19-.473.425-.473h3.15c.235 0 .425.212.425.473s-.19.473-.425.473h-3.15z" stroke-width=".3"/><path d="M7.03 8.78a.228.228 0 01.165.14.213.213 0 01-.034.213l-.343.44.565 1.073a.224.224 0 01-.058.275l-.749.604a.203.203 0 01-.135.049.223.223 0 01-.14-.049l-.735-.604a.216.216 0 01-.054-.27l.561-1.074-.347-.444a.22.22 0 01.13-.353c.014 0 .314-.058.594-.058.28 0 .566.058.58.058zm-1.049 1.919l.46.377.473-.377-.469-.885-.464.885zm2.021-2.016c.184.034.46.083.957.232.967.29 1.127 1.349 1.078 1.866a.243.243 0 01-.246.222H7.88a.248.248 0 01-.246-.246c0-.136.11-.247.246-.247h1.663c-.02-.333-.135-.942-.73-1.126a7.235 7.235 0 00-.858-.21l-.041-.008c-.213-.038-.338-.058-.522-.207a.246.246 0 01-.034-.348.246.246 0 01.348-.034c.083.067.102.072.295.106zm-2.76.372c-.212.058-.41.092-.585.126-.348.063-.619.11-.817.295-.295.27-.43.401-.469 1.04h1.6c.136 0 .247.11.247.245a.248.248 0 01-.252.242H3.11a.249.249 0 01-.246-.251c.019-.976.203-1.237.638-1.644.304-.285.676-.347 1.068-.415a4.87 4.87 0 00.541-.116.253.253 0 01.305.174.253.253 0 01-.174.304zm1.073.116l.135.174.136-.174a2.65 2.65 0 00-.271 0zm.44-5.588c.15 0 .338.116.555.353a.818.818 0 01.807.304c.276.349.243 1.006.203 1.345a.61.61 0 01.184.232c.078.178.02.425-.067.754-.02.067-.034.13-.044.169-.048.246-.203.362-.323.444-.43 1.122-1.083 1.267-1.6 1.267-.697 0-1.291-.469-1.615-1.257-.13-.067-.29-.189-.343-.32-.097-.226-.194-.869-.083-1.077a.39.39 0 01.247-.183c-.097-.325-.222-.803.247-1.504.261-.382.88-.44.962-.435a.923.923 0 00.169-.01c.116-.101.3-.096.58-.087.043 0 .087.005.12.005zm-.895.585c-.101.005-.435.082-.526.218-.274.402-.285.672-.234.907.347-.179.793-.159 1.23-.139.405.02.826.034 1.087-.12a.201.201 0 01.28.072.201.201 0 01-.072.28c-.368.223-.851.199-1.32.18-.434-.02-.846-.037-1.092.134v-.004a.558.558 0 01-.01.179.249.249 0 01-.261.207h-.077c.004.15.043.45.096.59.029.034.12.092.16.107a.247.247 0 01.159.15c.354.956.997 1.029 1.19 1.029.386 0 .826-.078 1.16-1.025a.304.304 0 01.135-.15c.106-.073.13-.092.14-.15.01-.053.03-.121.049-.199.029-.106.097-.357.087-.439a.086.086 0 00-.058-.044c-.13-.029-.198-.15-.18-.28.059-.353.078-.938-.077-1.131a.318.318 0 00-.391-.106.252.252 0 01-.295-.063 1.857 1.857 0 00-.314-.3c-.034 0-.073 0-.111-.005a1.686 1.686 0 00-.271 0c-.15.107-.397.107-.484.102z" stroke-width=".4"/></svg>