<svg width="17" height="17" xmlns="http://www.w3.org/2000/svg"><path d="M5.411 11.583l1.653-3.306.662 1.433s.11.33.44.33c.331 0 .552-.33.552-.33l2.755-4.299c.551-.11.992-.551.992-1.102 0-.662-.44-1.102-1.102-1.102-.661 0-1.102.44-1.102 1.102 0 .22.11.44.22.661L8.387 8.277l-.772-1.433s-.11-.33-.55-.33c-.331 0-.442.33-.442.33L4.53 10.922H2.655c-.33 0-.55-.22-.55-.551V2.655c0-.33.22-.55.55-.55H14.78c.33 0 .551.22.551.55v7.716c0 .33-.22.551-.551.551H7.615v4.409H3.758c-.331 0-.551.22-.551.551 0 .33.22.551.55.551h8.818c.331 0 .552-.22.552-.55 0-.332-.22-.552-.552-.552H8.718v-3.307h6.613c.551 0 1.102-.55 1.102-1.102V2.104c0-.661-.55-1.102-1.102-1.102H2.104c-.55 0-1.102.441-1.102 1.102v8.818c0 .551.551 1.102 1.102 1.102H4.86s.22 0 .33-.11c.11-.11.221-.33.221-.33z" stroke-width=".3"/></svg>