<svg width="17" height="17" xmlns="http://www.w3.org/2000/svg"><path d="M11.033 11.712l-.682-.682a.483.483 0 01.682-.682l.682.682.342-.341a.964.964 0 011.364 0l2.728 2.73a.966.966 0 010 1.365l-1.364 1.365a.964.964 0 01-1.364 0l-2.729-2.73a.966.966 0 010-1.365l.341-.341zm-.102-6.04l-5.225 5.227a2.411 2.411 0 00-3.717 2.359 1.447 1.447 0 012.043 2.044 2.415 2.415 0 002.357-3.72l5.224-5.228.15.15a2.412 2.412 0 003.53-2.47A1.449 1.449 0 0113.25 1.99a2.412 2.412 0 00-2.469 3.532l.15.15zm-3.374 6.106a3.38 3.38 0 01-4.629 4.188.02.02 0 01-.01-.011.483.483 0 01-.127-.774l.013-.012.485-.486a.483.483 0 00-.682-.682l-.488.489a.482.482 0 01-.773-.1c-.005 0-.008-.002-.009-.005a3.382 3.382 0 01.652-3.861 3.375 3.375 0 013.522-.794l4.214-4.216a3.38 3.38 0 01.794-3.525 3.376 3.376 0 013.857-.652.01.01 0 01.006.009.483.483 0 01.099.773l-.489.49a.483.483 0 00.682.682l.485-.486h.001l.012-.013a.482.482 0 01.773.126.018.018 0 01.01.011 3.381 3.381 0 01-.663 3.839 3.375 3.375 0 01-3.521.793l-4.214 4.217zM4.91 2.142l2.728 2.73a.966.966 0 010 1.365L6.274 7.603a.964.964 0 01-1.364 0l-2.728-2.73a.966.966 0 010-1.366l1.364-1.365a.964.964 0 011.364 0zm-.682.682L2.863 4.19l2.728 2.73 1.365-1.364-2.728-2.73zm8.512 8.547l-1.364 1.365 2.728 2.73 1.365-1.365-2.729-2.73z" stroke-width=".3"/></svg>