<svg width="18" height="15" xmlns="http://www.w3.org/2000/svg"><g stroke-width=".2"><path d="M16.433 3.667a.533.533 0 00-.533.533v7.467a.533.533 0 01-.534.533h-3.733a1.6 1.6 0 00-1.386.8H7.719a1.602 1.602 0 00-1.386-.8H2.6a.533.533 0 01-.533-.533V4.2A.533.533 0 001 4.2v7.467a1.6 1.6 0 001.6 1.6h3.733c.245 0 .457.166.517.4.06.235.273.4.517.4H10.6a.534.534 0 00.517-.4.533.533 0 01.516-.4h3.733a1.6 1.6 0 001.6-1.6V4.2a.533.533 0 00-.533-.533zm-11.053.8h1.506a.533.533 0 000-1.067H5.38a.533.533 0 100 1.067zm0 2.133h1.506a.533.533 0 000-1.067H5.38a.533.533 0 000 1.067z"/><path d="M8 1c.377 0 .74.144 1.015.402C9.277 1.156 9.618 1 10 1h3.5A1.5 1.5 0 0115 2.5v6.827a1.5 1.5 0 01-1.5 1.5H10c-.217 0-.42.175-.482.441a.487.487 0 01-.51.383.485.485 0 01-.515-.411.5.5 0 00-.493-.413H4.5a1.5 1.5 0 01-1.5-1.5V2.5A1.5 1.5 0 014.5 1zm5.5 1H10c-.264 0-.5.26-.5.603v7.315c.16-.06.33-.091.5-.091h3.5a.5.5 0 00.5-.5V2.5a.5.5 0 00-.5-.5zM8 2H4.5a.5.5 0 00-.5.5v6.828a.5.5 0 00.5.5H8c.17 0 .34.028.5.085V2.5A.5.5 0 008 2z"/></g></svg>