<svg width="17" height="16" xmlns="http://www.w3.org/2000/svg"><path d="M16.682 9.056c-.033-.98-.778-1.726-1.733-1.726H2.792C1.786 7.33 1 8.092 1 9.064v.008l.38 4.304c.008.947.778 1.657 1.791 1.657h11.371c1.005 0 1.792-.726 1.792-1.657l.346-4.312v-.008h.002zm-1.428 4.303c0 .322-.363.65-.71.65H3.171c-.313 0-.584-.303-.584-.641v-.009l-.505-4.303c.008-.322.414-.669.71-.669h12.165c.303 0 .609.33.609.669l-.312 4.303zm-.922-6.56l-.634-3.99v-.017c0-.304-.423-.71-.735-.71H4.728c-.33 0-.735.388-.735.71v.016l-.634 3.998H2.327l.6-4.025A1.794 1.794 0 014.72 1.006h8.236c.98 0 1.783.795 1.791 1.775l.601 4.025h-1.015V6.8zm-3.17 4.862H6.848a.522.522 0 01-.524-.525c0-.286.238-.524.524-.524h4.304c.295 0 .524.238.524.524a.52.52 0 01-.516.525zm.379-7.515H6.148a.53.53 0 01-.533-.525.53.53 0 01.533-.524h5.393a.52.52 0 01.524.524.526.526 0 01-.524.525zm.568 1.868H5.582a.522.522 0 01-.524-.525c0-.287.237-.532.524-.532h6.527c.295 0 .524.237.524.532a.522.522 0 01-.524.525z" stroke-width=".3"/></svg>