<svg width="14" height="16" xmlns="http://www.w3.org/2000/svg"><path d="M13.627 10.444l-1.4-1.43V5.49C12.265 2.784 10.333.464 7.7.054a5.187 5.187 0 00-4.137 1.272 5.362 5.362 0 00-1.79 3.998v3.69l-1.4 1.43a1.31 1.31 0 00-.268 1.406c.197.48.658.795 1.17.798H3.89v.269c.076 1.67 1.467 2.963 3.111 2.892 1.644.071 3.035-1.222 3.111-2.892v-.269h2.613a1.276 1.276 0 001.171-.798 1.311 1.311 0 00-.268-1.406zm-5.071 2.473A1.469 1.469 0 017 14.228a1.469 1.469 0 01-1.556-1.311v-.269h3.112v.269zm-6.604-1.85l.918-.931a1.59 1.59 0 00.459-1.122v-3.69c0-1.079.46-2.104 1.26-2.813a3.595 3.595 0 012.909-.925c1.86.307 3.213 1.958 3.173 3.872v3.556c-.002.42.16.823.451 1.122l.926.932H1.952z"/></svg>