<svg width="17" height="18" xmlns="http://www.w3.org/2000/svg"><path d="M5.004 16.448v-4.277h.49a.814.814 0 00.818-.817V7.94a.814.814 0 00-.817-.817H2.88a.82.82 0 00-.817.817v3.415c0 .45.368.817.817.817h.49v4.282a.531.531 0 01-1.062 0v-3.318a1.876 1.876 0 01-1.299-1.78V7.938c0-1.03.842-1.87 1.871-1.87h2.615c1.03 0 1.879.84 1.879 1.87v3.415a1.898 1.898 0 01-1.3 1.781v3.313a.535.535 0 01-1.07 0zm9.97-2.871a1.013 1.013 0 110 2.027 1.013 1.013 0 010-2.027zM12.246 2.898c.156 0 .278.066.376.164a.545.545 0 01.147.375.533.533 0 01-.506.515h-.842v4.535h.842c.286 0 .53.237.53.53a.535.535 0 01-.53.532h-.842v4.518h.834a.54.54 0 01.53.53.535.535 0 01-.53.532H11.2c-.2 0-.4-.033-.589-.098a.506.506 0 01-.196-.237.734.734 0 01-.057-.22V9.54h-1.75a.574.574 0 01-.368-.172.457.457 0 01-.13-.376.517.517 0 01.498-.498h1.751v-5.04c0-.106.025-.213.098-.303a.547.547 0 01.441-.253h1.348zm2.728 5.098a1.013 1.013 0 110 2.027 1.013 1.013 0 010-2.027zM4.187 1.003a2.17 2.17 0 012.166 2.165 2.169 2.169 0 01-2.166 2.165 2.164 2.164 0 01-2.165-2.165 2.17 2.17 0 012.165-2.165zm-1.11 2.173c0 .605.498 1.111 1.11 1.111.613 0 1.112-.506 1.112-1.111s-.507-1.111-1.112-1.111c-.604 0-1.11.498-1.11 1.111zm10.85.286a1.019 1.019 0 01.981-1.046h.066a1.019 1.019 0 011.045.98 1.019 1.019 0 01-.98 1.046h-.065a1.019 1.019 0 01-1.046-.98z" stroke-width=".2"/></svg>