<svg width="18" height="16" xmlns="http://www.w3.org/2000/svg"><path d="M12.745 14.671c.314 0 .571.258.571.572a.573.573 0 01-.571.571H5.198a.573.573 0 01-.571-.571c0-.314.257-.572.571-.572h7.547zm2.49-13.662c1.176 0 1.717.604 1.717 1.716v9.025c0 1.057-.541 1.714-1.714 1.714H2.714C1.59 13.464 1 12.875 1 11.75V2.723c0-1.11.59-1.714 1.714-1.714h12.522zm.413 1.145H2.327a.173.173 0 00-.173.171v9.852c0 .094.078.171.173.171h13.321a.173.173 0 00.173-.171V2.325a.173.173 0 00-.173-.171zM5.616 5.405c.314 0 .572.257.572.572v3.987a.573.573 0 01-.572.572.573.573 0 01-.571-.572V5.977c0-.315.257-.572.571-.572zM9.637 3.94c.315 0 .572.257.572.572v5.453a.573.573 0 01-.572.572.573.573 0 01-.57-.572V4.511c0-.315.256-.572.57-.572zm3.433 2.93c.314 0 .571.258.571.572v2.523a.573.573 0 01-.571.572.573.573 0 01-.572-.572V7.441c0-.314.257-.571.572-.571z" stroke-width=".2"/></svg>