<svg width="17" height="17" xmlns="http://www.w3.org/2000/svg"><path d="M13.497 1A2.503 2.503 0 0116 3.522v9.975A2.494 2.494 0 0113.497 16H3.503A2.494 2.494 0 011 13.497V3.503A2.503 2.503 0 013.503 1zm0 1.19H3.503a1.322 1.322 0 00-1.331 1.332v9.975a1.331 1.331 0 001.331 1.34h9.994c.74 0 1.34-.6 1.34-1.34V3.522a1.331 1.331 0 00-1.34-1.331zm-1.135 8.644a.581.581 0 010 1.163H4.694a.572.572 0 01-.582-.581.581.581 0 01.582-.582zM7.47 4.337c.46 0 .834.374.834.835v2.494c0 .46-.373.834-.834.834H4.967a.825.825 0 01-.825-.834V5.172a.825.825 0 01.825-.835zm4.893 2.335a.581.581 0 010 1.162H9.926a.581.581 0 010-1.162zM7.178 5.5H5.303v1.875h1.875V5.5z" stroke-width=".2"/></svg>