<svg width="18" height="15" xmlns="http://www.w3.org/2000/svg"><path d="M12.24 1.066c2.733-.477 5.322 2.343 4.55 5.141-.195.702-.538 1.247-.944 1.727l-.225.273a.49.49 0 01-.698.048.49.49 0 01-.048-.698l.39-.471c.089-.125.178-.254.269-.393.307-.47.484-1.393.307-2.148-.407-1.734-2.464-3.238-4.552-2.174-.95.486-1.502 1.461-2.316 2.09v.005l-.003.004-.004-.004-.003.004-.004-.004c-.813-.634-1.366-1.61-2.316-2.095-2.088-1.066-4.145.438-4.552 2.174-.177.755.025 1.664.307 2.148.397.68 1.022 1.175 1.56 1.714l3.044 3.018c.275.275 1.678 1.827 1.959 1.841h.014c.12-.005.445-.293.796-.64l.304-.27a.52.52 0 01.741.051.52.52 0 01-.052.741l-.475.41c-.366.356-.76.663-1.146.731a1.16 1.16 0 01-.168.02h-.014a1.52 1.52 0 01-.168-.02c-.816-.144-1.67-1.337-2.2-1.868L3.55 9.404c-.94-.94-1.996-1.722-2.404-3.197C.375 3.41 2.964.59 5.7 1.067c.75.13 1.37.362 1.893.715l.537.434.84.84.839-.84.537-.434c.524-.353 1.145-.586 1.893-.716zm-.138 10.413c.228 0 .407.178.407.407v1.709a.404.404 0 01-.407.407.402.402 0 01-.407-.407v-1.71c0-.228.178-.406.407-.406zm2.221-2.563c.229 0 .407.179.407.407v4.272c0 .226-.18.407-.407.407a.402.402 0 01-.407-.407V9.323c0-.228.179-.407.407-.407zm2.26 1.098c.23 0 .408.179.408.407v3.174a.404.404 0 01-.407.407.402.402 0 01-.407-.407V10.42c0-.228.178-.407.407-.407z" stroke-width=".5"/></svg>