<svg width="16" height="17" xmlns="http://www.w3.org/2000/svg"><path d="M9.793 15.115h.964v-.018h2.225V7.423l-1.532-.539a1.037 1.037 0 01-.693-.978.52.52 0 01.693-.49l2.437.858c.275.178.451.475.477.802l.003.082v7.957h.366a.693.693 0 010 1.385H1.693a.693.693 0 010-1.385h.36V4.52c0-.364.188-.702.496-.895l5.629-2.463a1.056 1.056 0 011.615.895v13.058zM3.44 4.748v10.348h4.97V9.315l-.01.004v-.641l.01.022V6.034l-.01.004v-.64l.01.022V2.574L3.44 4.748zm4.03 4.206c0 .453-.274.862-.693 1.035l-1.705.704a.501.501 0 01-.692-.463c0-.454.273-.862.692-1.036l1.705-.703a.501.501 0 01.693.463zm0-3.273v.091a1 1 0 01-.609.92l-1.789.762a.498.498 0 01-.692-.458c0-.457.272-.869.692-1.048l1.705-.725a.498.498 0 01.693.458z" stroke-width=".3"/></svg>