<svg width="18" height="16" xmlns="http://www.w3.org/2000/svg"><path d="M16.396 13.875h-.534v-7.51a2.139 2.139 0 00-2.117-2.138H10.56V3.146a2.14 2.14 0 00-2.128-2.14H4.188a2.139 2.139 0 00-2.128 2.14v10.718h-.523a.535.535 0 100 1.07h14.86a.535.535 0 000-1.07v.01zM9.501 4.227v9.648H3.13V3.145a1.07 1.07 0 011.058-1.069h4.244a1.07 1.07 0 011.058 1.07l.011 1.08zm5.314 9.648H10.56V5.296h3.185a1.07 1.07 0 011.058 1.07l.012 7.509zM7.909 4.227H4.723a.535.535 0 100 1.07h3.186a.535.535 0 000-1.07zm0 3.22H4.723a.535.535 0 100 1.069h3.186a.535.535 0 000-1.07zm0 3.22H4.723a.535.535 0 000 1.069h3.186a.535.535 0 100-1.07zm5.313-3.22h-1.07a.535.535 0 000 1.069h1.059a.535.535 0 000-1.07h.011zm0 3.22h-1.07a.535.535 0 000 1.069h1.059a.535.535 0 000-1.07h.011z" stroke-width=".3"/></svg>