<svg width="17" height="17" xmlns="http://www.w3.org/2000/svg"><path d="M4.971 1.006a.66.66 0 01.677.677.66.66 0 01-.676.677H3.618c-.484 0-.774.096-1.065.387-.29.29-.385.58-.385 1.064v9.868c0 .484.096.773.385 1.063.291.291.58.581 1.065.581h10.157c.484 0 .774-.29 1.064-.58.29-.29.387-.58.387-1.064V3.81c0-.484-.097-.774-.387-1.065-.29-.29-.58-.386-1.064-.386h-1.354a.662.662 0 01-.677-.677.66.66 0 01.677-.677h1.355c1.645 0 2.709 1.16 2.709 2.805v9.868c0 1.644-1.064 2.805-2.71 2.805H3.619c-1.643 0-2.612-1.16-2.612-2.805V3.81c0-1.645.969-2.805 2.61-2.805zm8.224 12.092c.387 0 .677.194.677.58 0 .388-.291.58-.677.58H4.682c-.484 0-.677-.29-.677-.58 0-.386.193-.58.677-.58zm0-2.128c.484 0 .677.193.677.58 0 .388-.193.58-.677.58H4.682c-.484 0-.677-.193-.677-.58 0-.387.193-.58.677-.58zm-.968-7.546c.968 0 1.936.774 1.936 1.838a1.837 1.837 0 01-1.839 1.839c-.386 0-.677-.097-.967-.291L9.326 8.745a.511.511 0 01-.775.097L7.1 7.68C5.939 8.745 5.165 9.422 4.779 9.81c-.192.192-.58.192-.773 0-.194-.291-.194-.678 0-.871.58-.484 1.45-1.355 2.514-2.42.097-.192.29-.29.388-.29.096 0 .29.098.385.194l1.452 1.161 1.741-1.645c0-.193-.097-.387-.097-.677 0-1.064.87-1.838 1.838-1.838zm0 1.065a.763.763 0 00-.773.773c0 .29.097.484.193.581.194.096.386.193.58.193a.763.763 0 00.774-.774.762.762 0 00-.774-.773zm-1.935-3.483c.485 0 .87.193.87.677 0 .484-.385.677-.87.677H7.197c-.484 0-.87-.192-.87-.677 0-.484.386-.677.87-.677z" stroke-width=".3"/></svg>