<svg width="16" height="16" xmlns="http://www.w3.org/2000/svg"><path d="M15.53 6.314L9.148.459A1.733 1.733 0 007.984.005a1.73 1.73 0 00-1.163.454L.439 6.314c-.4.363-.527.945-.346 1.454.182.455.6.782 1.073.837v4.781c0 .582.218 1.11.637 1.51.4.4.927.6 1.509.6h9.345c.564 0 1.11-.219 1.51-.619.4-.4.617-.927.617-1.509V8.605a1.285 1.285 0 001.073-.837 1.285 1.285 0 00-.327-1.454zm-2.31 1.509v5.545a.563.563 0 01-.163.4.535.535 0 01-.4.164H3.293a.564.564 0 01-.4-.164.535.535 0 01-.163-.4V7.823a.776.776 0 00-.782-.782l5.91-5.418a.143.143 0 01.2 0l5.908 5.418c-.2 0-.4.09-.545.236a.863.863 0 00-.2.546z"/><path d="M9.966 9.55a2.897 2.897 0 01-4.09 0 .796.796 0 00-.583-.236.841.841 0 00-.581.236.812.812 0 000 1.164c.854.854 2 1.327 3.218 1.327a4.524 4.524 0 003.218-1.327.829.829 0 00-.018-1.164.846.846 0 00-1.164 0z"/></svg>