<svg width="18" height="17" xmlns="http://www.w3.org/2000/svg"><path d="M16.787 7.106L9.36 1.126a.572.572 0 00-.716 0l-7.43 5.98a.572.572 0 00.717.891l.784-.632v8.491a.57.57 0 00.571.572h11.429a.57.57 0 00.571-.572V7.363l.784.633a.57.57 0 00.802-.086.57.57 0 00-.084-.804zm-2.644 8.179H3.857V6.444L9 2.304l5.143 4.14v8.84z" stroke-width=".2"/><path d="M7.857 7H5.285a.57.57 0 00-.571.57v2.286a.57.57 0 00.571.572h2.572a.57.57 0 00.571-.572V7.571a.57.57 0 00-.571-.572zm-.572 2.285H5.857V8.142h1.428v1.143zm.572 1.714H5.285a.57.57 0 00-.571.572v2.285a.57.57 0 00.571.572h2.572a.57.57 0 00.571-.572v-2.285a.57.57 0 00-.571-.572zm-.572 2.286H5.857v-1.143h1.428v1.143zm2.858 1.143h2.571a.57.57 0 00.571-.572v-2.285a.57.57 0 00-.571-.572h-2.571a.57.57 0 00-.572.572v2.285a.57.57 0 00.572.572zm.571-2.286h1.429v1.143h-1.429v-1.143z"/></svg>