<svg width="17" height="17" xmlns="http://www.w3.org/2000/svg"><path d="M9.365 12.019l6.267-3.317a.562.562 0 01.765.242.58.58 0 01-.242.78l-6.26 3.317a2.284 2.284 0 01-2.169 0l-6.26-3.317a.585.585 0 01-.241-.78.562.562 0 01.765-.242l6.259 3.317a1.18 1.18 0 001.116 0zm0 3.301l6.267-3.317a.562.562 0 01.765.242.573.573 0 01-.242.773l-6.26 3.317c-.335.187-.71.28-1.084.28a2.36 2.36 0 01-1.085-.272l-6.26-3.317a.585.585 0 01-.241-.78.562.562 0 01.765-.243l6.259 3.317c.367.195.757.195 1.116 0zM7.726 9.623L1.474 6.274a.93.93 0 01-.468-.82.92.92 0 01.468-.819l6.252-3.348a2.277 2.277 0 012.17 0l6.252 3.348a.907.907 0 01.468.82.922.922 0 01-.468.82L9.896 9.622a2.301 2.301 0 01-2.17 0zm.53-7.321L2.38 5.455 8.257 8.6c.359.195.757.195 1.116 0l5.877-3.145L9.373 2.31a1.158 1.158 0 00-1.116-.008z" stroke-width=".3"/></svg>