<svg xmlns="http://www.w3.org/2000/svg" width="26" height="28"><defs><style>.cls-1{fill:#567cdb}</style></defs><g id="组_6" data-name="组 6" transform="translate(-111.709 -69.818)"><path id="路径_3" data-name="路径 3" class="cls-1" d="M114.75 97.818h19.918a3 3 0 003.041-2.83v-22.34a2.9 2.9 0 00-3.041-2.83H114.75a3 3 0 00-3.041 2.83v22.191a3.019 3.019 0 003.041 2.979zm-.912-25.17a.971.971 0 01.912-.894h19.918a.971.971 0 01.912.894v22.191a.971.971 0 01-.912.894H114.75a.971.971 0 01-.912-.894V72.648z"/><path id="路径_4" data-name="路径 4" class="cls-1" d="M271.158 290.671h10.006a1.045 1.045 0 100-2.09h-10.006a1.045 1.045 0 100 2.09zm0 5.373h10.006a1.037 1.037 0 001.078-1.044c0-.6-.462-.9-1.078-.9h-10.006a1.037 1.037 0 00-1.078 1.045 1.009 1.009 0 001.078.899zm0 5.821h10.006a1.045 1.045 0 100-2.09h-10.006a1.037 1.037 0 00-1.078 1.045 1.28 1.28 0 001.078 1.046zm-4.772-11.195h.924a1.037 1.037 0 001.078-1.045 1.009 1.009 0 00-1.078-.9h-.924a1.019 1.019 0 00-1.078.9 1.139 1.139 0 001.078 1.046zm0 5.373h.924a1.037 1.037 0 001.078-1.043c0-.6-.462-.9-1.078-.9h-.924a1.037 1.037 0 00-1.078 1.045c.001.601.463.899 1.078.899zm0 5.821h.924a1.045 1.045 0 100-2.09h-.924a1.045 1.045 0 100 2.09z" transform="translate(-148.695 -211.777)"/></g></svg>