<svg width="17" height="16" xmlns="http://www.w3.org/2000/svg"><path d="M16.944 11.547L15.168 8.46a.504.504 0 00-.432-.256h-3.568c-.176 0-.368.096-.432.256l-1.792 3.088a.49.49 0 000 .512l1.776 3.088c.096.16.256.256.432.256h3.584c.176 0 .368-.096.432-.256l1.776-3.088a.634.634 0 000-.512zm-2.52 2.832h-2.992l-1.48-2.576 1.488-2.576h2.968l1.488 2.576-1.472 2.576z"/><path d="M9.288 7.691H6.864a.505.505 0 00-.512.512c0 .288.224.512.512.512h2.432a.505.505 0 00.512-.512.517.517 0 00-.52-.512zm-1.6 2.992h-.824a.505.505 0 00-.512.512c0 .288.224.512.512.512h.832a.505.505 0 00.512-.512.523.523 0 00-.52-.512zM4.8 7.691H3.768a.505.505 0 00-.512.512c0 .288.224.512.512.512h1.024a.505.505 0 00.512-.512.499.499 0 00-.504-.512zM12.104 4.7h-5.24a.505.505 0 00-.512.512c0 .288.224.512.512.512h5.248a.505.505 0 00.512-.512.512.512 0 00-.52-.512zM4.8 4.7H3.768a.505.505 0 00-.512.512c0 .288.224.512.512.512h1.024a.505.505 0 00.512-.512A.504.504 0 004.8 4.7zm0 5.984H3.768a.505.505 0 00-.512.512c0 .288.224.512.512.512h1.024a.505.505 0 00.512-.512.504.504 0 00-.504-.512z" stroke-width=".2"/><path d="M12.936 10.011c.992 0 1.792.784 1.808 1.808 0 1.008-.8 1.808-1.808 1.808s-1.808-.8-1.808-1.808.8-1.808 1.808-1.808zm0 1.024a.758.758 0 00-.768.768c0 .432.336.768.768.768a.758.758 0 00.768-.768.758.758 0 00-.768-.768z"/><path d="M8.656 14.38H2.544a.505.505 0 01-.512-.513V2.54c0-.288.224-.512.512-.512h11.328c.288 0 .512.224.512.512v4.224c0 .272.208.496.48.528a.509.509 0 00.56-.512V2.54c0-.848-.688-1.536-1.536-1.536H2.536A1.535 1.535 0 001 2.54v11.328c0 .848.688 1.536 1.536 1.536h6.096a.505.505 0 00.512-.512.477.477 0 00-.488-.512z" stroke-width=".2"/></svg>