<svg width="17" height="17" xmlns="http://www.w3.org/2000/svg"><path d="M15.079 1.002c.833 0 1.51.677 1.51 1.51V15.07a1.51 1.51 0 01-1.51 1.51H2.52a1.51 1.51 0 01-1.51-1.51V2.513c0-.834.677-1.51 1.51-1.51h12.56zm0 1.286H2.52c-.124 0-.225.1-.225.225V15.07c0 .124.101.225.225.225h12.56c.124 0 .225-.1.225-.225V2.513a.225.225 0 00-.225-.225zm-2.73 10.586a.642.642 0 110 1.285h-7.1a.642.642 0 110-1.285h7.1zm0-2.55a.642.642 0 110 1.285h-7.1a.642.642 0 110-1.285h7.1zM8.924 3.062l.013.004c.027.009.053.02.078.032l.011.006a.54.54 0 01.074.045l.012.01a.538.538 0 01.063.052l.009.009 2.963 2.966a.643.643 0 01-.908.908L9.372 5.227v3.556a.643.643 0 01-1.286 0V5.227L6.17 7.141a.641.641 0 01-.909 0 .643.643 0 010-.908L8.275 3.22l.008-.01a.644.644 0 01.062-.052l-.07.062a.645.645 0 01.156-.116l.014-.006a.537.537 0 01.077-.032l.012-.004a.64.64 0 01.381-.003l.01.003z" stroke-width=".1"/></svg>