<svg width="17" height="17" xmlns="http://www.w3.org/2000/svg"><path d="M13.99 1.016c1.195 0 2.163.968 2.163 2.163V13.99a2.163 2.163 0 01-2.162 2.162H3.179a2.163 2.163 0 01-2.163-2.162V3.179c0-1.195.968-2.163 2.163-2.163zm.002 1.08H3.182c-.6 0-1.085.485-1.086 1.084v10.814c0 .289.114.56.319.764.204.204.477.315.766.315h10.811a1.079 1.079 0 001.081-1.08V3.18a1.082 1.082 0 00-1.08-1.084zM5.748 9.728a1.892 1.892 0 110 3.785 1.892 1.892 0 010-3.785zm.159 1.096a.812.812 0 10-.317 1.593.812.812 0 00.317-1.593zm7.41.256a.54.54 0 110 1.08H8.992a.54.54 0 110-1.08zM6.989 4.553a.54.54 0 01.764.764L5.59 7.48a.54.54 0 01-.764 0L3.744 6.398a.54.54 0 11.764-.764l.7.7zm6.33.92a.54.54 0 010 1.08H8.993a.54.54 0 010-1.08z" stroke-width=".2"/></svg>