<svg width="18" height="18" xmlns="http://www.w3.org/2000/svg"><path d="M14.35 1c1.377 0 2.629 1.055 2.629 2.415h-.003V14.63c0 1.323-1.266 2.327-2.62 2.327h-2.504a.646.646 0 01-.595-.873.66.66 0 01.626-.415h1.898a1.898 1.898 0 001.903-1.915l.02-1.707-.02-7.886a1.87 1.87 0 00-1.88-1.884H4.202A1.889 1.889 0 002.29 3.984V6.15a.646.646 0 01-.873.592A.657.657 0 011 6.118v-2.47A2.657 2.657 0 013.651 1zM5.486 5.235a3.038 3.038 0 011.868 5.435 4.506 4.506 0 012.043 1.875l1.158-3.699a.609.609 0 01.776-.37l-.037-.014a.589.589 0 01.427.734l-1.84 5.884a.629.629 0 01-.587.39.609.609 0 01-.438-.174.686.686 0 01-.173-.359v-.128a3.255 3.255 0 00-2.95-3.266 3.215 3.215 0 00-3.466 3.204v.102a.634.634 0 11-1.266 0v-.102A4.492 4.492 0 013.62 10.67a3.038 3.038 0 011.867-5.435zm.005 1.247a1.77 1.77 0 100 3.54 1.77 1.77 0 000-3.54zm7.032-.225a.523.523 0 11-.014 1.045h-2.503a.523.523 0 110-1.045zm1.466-2.076a.523.523 0 110 1.044h-3.983a.523.523 0 110-1.044z" stroke-width=".2"/></svg>