<svg width="17" height="16" xmlns="http://www.w3.org/2000/svg"><path d="M12.627 5.905a.8.8 0 00-1.249.992l2.16 2.705H6.402a.8.8 0 01-.8-.8V4.8A.8.8 0 004 4.8v4.001a2.4 2.4 0 002.4 2.401h7.139l-2.16 2.705a.8.8 0 00.623 1.296.8.8 0 00.625-.304l3.2-4a.8.8 0 000-.993l-3.2-4.001z" stroke-width=".3"/><path d="M2.57 0h11.146a2.351 2.351 0 012.264 2.42v1.063a.87.87 0 01-1.742 0V2.421a.627.627 0 00-.522-.68H2.57a.627.627 0 00-.522.68v10.832a.627.627 0 00.522.679h1.22a.87.87 0 010 1.741H2.57a2.351 2.351 0 01-2.264-2.42V2.42A2.351 2.351 0 012.57 0z"/></svg>