<svg width="16" height="16" xmlns="http://www.w3.org/2000/svg"><path d="M14.494.004H1.465C.665.004.017.683.017 1.52v12.892c0 .839.648 1.518 1.448 1.518H2.97a.71.71 0 00.698-.656l.002-.015c.044-.452-.28-.847-.715-.847h-1.49V1.52h13.028v4.573c0 .189.075.368.208.5l.017.018c.456.469 1.223.127 1.223-.545V1.52c.002-.836-.646-1.515-1.446-1.515z"/><path d="M3.648 4.554h7.896c.49 0 .737-.246.737-.737v-.044c0-.49-.246-.736-.737-.736H3.648c-.49 0-.736.246-.736.736v.044c.001.49.246.737.736.737zM2.913 6.85c0 .49.247.737.737.737h2.148c.49 0 .737-.247.737-.737v-.044c0-.49-.247-.737-.737-.737h-2.15c-.49 0-.736.246-.736.737v.044h.001zm0 3.035c0 .49.247.736.737.736h2.148c.49 0 .737-.246.737-.736V9.84c0-.49-.247-.736-.737-.736h-2.15c-.49 0-.736.246-.736.736v.045h.001zm9.918.948a2.87 2.87 0 00.792-1.981 2.882 2.882 0 00-2.88-2.879 2.882 2.882 0 00-2.88 2.879c0 .767.302 1.463.793 1.98a4.855 4.855 0 00-1.333.947 4.797 4.797 0 00-1.42 3.42c0 .397.324.72.722.72h8.235a.721.721 0 00.72-.72 4.808 4.808 0 00-1.417-3.422 4.808 4.808 0 00-1.332-.944zm-2.089-3.49a1.509 1.509 0 010 3.015 1.509 1.509 0 010-3.016zm-3.319 7.134a3.402 3.402 0 013.32-2.675 3.404 3.404 0 013.319 2.675H7.423z"/></svg>