<svg width="17" height="17" xmlns="http://www.w3.org/2000/svg"><path d="M2.338 2.338a.496.496 0 00-.146.352v8.555c0 .274.223.496.498.496h12.526a.495.495 0 00.498-.494V2.69a.495.495 0 00-.495-.498H2.69a.502.502 0 00-.351.146zM8.253 5.42c0-.51-.25-.694-.55-.694-.302 0-.583.185-.583.694v3.025c0 .459.105.752.562.755h2.842c.746 0 .876-.32.876-.545 0-.224-.141-.59-.876-.59h-2.27V5.42v.001zm-.523 7.505c.033.079.05.163.05.248v2.238h2.343v-2.24a.64.64 0 01.049-.247h-2.44l-.002.001zm3.664 0c.027.08.042.165.04.248v2.235h1.74c.41 0 .726.239.726.578 0 .337-.316.606-.727.606H4.732c-.41 0-.77-.195-.77-.606 0-.412.36-.58.77-.58H6.47v-2.23a.71.71 0 01.044-.25h-3.52A1.985 1.985 0 011.01 10.94V2.995a1.986 1.986 0 011.985-1.987h11.916c1.097 0 1.987.89 1.987 1.987v7.944c0 1.098-.89 1.986-1.987 1.986h-3.517z" stroke-width=".2"/></svg>