<svg width="26" height="26" xmlns="http://www.w3.org/2000/svg" xmlns:xlink="http://www.w3.org/1999/xlink"><defs><circle id="a" cx="13" cy="13" r="13"/></defs><g fill="none"><mask id="b" fill="#fff"><use xlink:href="#a"/></mask><use fill="#FFF" xlink:href="#a"/><path d="M13.141 6a5.625 5.625 0 100 11.25 5.625 5.625 0 000-11.25zm-.203 9.484C10.5 15.484 10.5 13.5 10.5 13.5h5s-.125 1.984-2.562 1.984zm.06 3.016c-7.472 0-9.683 2.625-9.996 6.447C2.957 25.52 3.567 26 4.336 26h17.33c.766 0 1.38-.48 1.332-1.053-.306-3.84-2.492-6.447-10-6.447z" fill="#8DAEFF" mask="url(#b)"/><circle stroke="#8DAEFF" cx="13" cy="13" r="12.5"/></g></svg>